solid AssimpScene
 facet normal -0.13329698 0.021174198 -0.99084991
  outer loop
  vertex 0.029894801 0.96582401 0.00334253
  vertex 0.00751962 0.68538702 0.00035975201
  vertex -0.00078475999 0.97542697 0.0076750298
  endloop
 endfacet

 facet normal 0.57471824 -0.21769707 -0.78886425
  outer loop
  vertex -0.040076502 0.16311499 -0.048328102
  vertex -0.083571397 0.140031 -0.073645599
  vertex -0.117913 0.30544201 -0.14431199
  endloop
 endfacet

 facet normal 0.45868382 0.11661295 -0.88091463
  outer loop
  vertex -0.056049202 0.54557103 -0.051248401
  vertex 0.00751962 0.68538702 0.00035975201
  vertex 0.0160651 0.59463102 -0.0072046798
  endloop
 endfacet

 facet normal 0.79676282 0.028666593 -0.60361189
  outer loop
  vertex -0.040076502 0.16311499 -0.048328102
  vertex -0.117913 0.30544201 -0.14431199
  vertex -0.056049202 0.54557103 -0.051248401
  endloop
 endfacet

 facet normal 0.63744479 0.13009997 -0.75943279
  outer loop
  vertex -0.056049202 0.54557103 -0.051248401
  vertex -0.117913 0.30544201 -0.14431199
  vertex -0.070360698 0.79810202 -0.019999299
  endloop
 endfacet

 facet normal 0.42868224 0.13483907 -0.89333647
  outer loop
  vertex 0.00751962 0.68538702 0.00035975201
  vertex -0.056049202 0.54557103 -0.051248401
  vertex -0.070360698 0.79810202 -0.019999299
  endloop
 endfacet

 facet normal 0.27454886 0.064972967 -0.95937556
  outer loop
  vertex -0.025567999 0.993204 0.00603233
  vertex -0.070360698 0.79810202 -0.019999299
  vertex -0.075001702 0.97503901 -0.0093445396
  endloop
 endfacet

 facet normal 0.085792631 0.02757531 -0.99593139
  outer loop
  vertex -0.025567999 0.993204 0.00603233
  vertex -0.00078475999 0.97542697 0.0076750298
  vertex 0.00751962 0.68538702 0.00035975201
  endloop
 endfacet

 facet normal -0.024778804 0.012147501 -0.99961913
  outer loop
  vertex 0.0151478 0.102216 -0.0131658
  vertex 0.0160651 0.59463102 -0.0072046798
  vertex 0.054071199 0.429634 -0.0101518
  endloop
 endfacet

 facet normal 0.4304871 0.11515103 -0.89522117
  outer loop
  vertex 0.0160651 0.59463102 -0.0072046798
  vertex 0.00751962 0.68538702 0.00035975201
  vertex 0.054071199 0.429634 -0.0101518
  endloop
 endfacet

 facet normal -0.2563501 0.030728914 -0.96609533
  outer loop
  vertex 0.029894801 0.96582401 0.00334253
  vertex 0.057445701 0.79146302 -0.0095139705
  vertex 0.00751962 0.68538702 0.00035975201
  endloop
 endfacet

 facet normal -0.20137301 0.0036048803 -0.97950804
  outer loop
  vertex 0.057445701 0.79146302 -0.0095139705
  vertex 0.054071199 0.429634 -0.0101518
  vertex 0.00751962 0.68538702 0.00035975201
  endloop
 endfacet

 facet normal 0.084312402 -0.00085052103 -0.99643898
  outer loop
  vertex 0.0559242 -0.064966097 -0.0095728897
  vertex 0.0151478 0.102216 -0.0131658
  vertex 0.054071199 0.429634 -0.0101518
  endloop
 endfacet

 facet normal 0.54996914 0.016592704 -0.83502018
  outer loop
  vertex 0.0151478 0.102216 -0.0131658
  vertex -0.040076502 0.16311499 -0.048328102
  vertex -0.056049202 0.54557103 -0.051248401
  endloop
 endfacet

 facet normal 0.51653469 0.0094030555 -0.85621458
  outer loop
  vertex 0.0151478 0.102216 -0.0131658
  vertex -0.056049202 0.54557103 -0.051248401
  vertex 0.0160651 0.59463102 -0.0072046798
  endloop
 endfacet

 facet normal 0.32244909 0.052078009 -0.94515318
  outer loop
  vertex 0.00751962 0.68538702 0.00035975201
  vertex -0.070360698 0.79810202 -0.019999299
  vertex -0.025567999 0.993204 0.00603233
  endloop
 endfacet

 facet normal -0.033546608 -0.029651906 -0.99899715
  outer loop
  vertex 0.0559242 -0.064966097 -0.0095728897
  vertex -0.055858199 0.066586003 -0.0097238896
  vertex 0.0151478 0.102216 -0.0131658
  endloop
 endfacet

 facet normal 0.60742611 -0.37859806 -0.69835305
  outer loop
  vertex -0.040076502 0.16311499 -0.048328102
  vertex -0.055858199 0.066586003 -0.0097238896
  vertex -0.083571397 0.140031 -0.073645599
  endloop
 endfacet

 facet normal 0.15074001 -0.38823602 -0.9091481
  outer loop
  vertex -0.040076502 0.16311499 -0.048328102
  vertex 0.0151478 0.102216 -0.0131658
  vertex -0.055858199 0.066586003 -0.0097238896
  endloop
 endfacet

 facet normal 0.00054745679 -0.00068264874 -0.99999958
  outer loop
  vertex -0.055691101 -0.066171497 -0.0096331704
  vertex -0.055858199 0.066586003 -0.0097238896
  vertex 0.0559242 -0.064966097 -0.0095728897
  endloop
 endfacet

 facet normal -0.18820597 0.60247689 -0.77562886
  outer loop
  vertex 0.083117001 -0.138354 -0.073176198
  vertex -0.00174063 -0.081834897 -0.0086835297
  vertex 0.0559242 -0.064966097 -0.0095728897
  endloop
 endfacet

 facet normal 0.0011501202 -0.056569409 -0.99839813
  outer loop
  vertex -0.055691101 -0.066171497 -0.0096331704
  vertex 0.0559242 -0.064966097 -0.0095728897
  vertex -0.00174063 -0.081834897 -0.0086835297
  endloop
 endfacet

 facet normal -0.58067608 0.055040002 -0.81227207
  outer loop
  vertex -0.00174063 -0.081834897 -0.0086835297
  vertex 0.083117001 -0.138354 -0.073176198
  vertex 0.0115154 -0.20363601 -0.026413299
  endloop
 endfacet

 facet normal 0.13163295 -0.026448589 -0.99094558
  outer loop
  vertex -0.029892599 -0.96582401 0.0033436799
  vertex -0.01485 -0.61436099 -0.0040387399
  vertex 0.00078284502 -0.97542697 0.00767481
  endloop
 endfacet

 facet normal -0.63993907 0.16415502 -0.75068706
  outer loop
  vertex 0.0115154 -0.20363601 -0.026413299
  vertex 0.083117001 -0.138354 -0.073176198
  vertex 0.118578 -0.30299899 -0.13940901
  endloop
 endfacet

 facet normal -0.60096383 -0.13161197 -0.78836584
  outer loop
  vertex 0.056049801 -0.54557002 -0.0512488
  vertex 0.118578 -0.30299899 -0.13940901
  vertex 0.070360199 -0.79810899 -0.0199979
  endloop
 endfacet

 facet normal -0.45531684 -0.13470796 -0.88007969
  outer loop
  vertex -0.01485 -0.61436099 -0.0040387399
  vertex 0.056049801 -0.54557002 -0.0512488
  vertex 0.070360199 -0.79810899 -0.0199979
  endloop
 endfacet

 facet normal -0.27212492 -0.064946376 -0.96006769
  outer loop
  vertex 0.0368024 -0.99289298 0.0026906
  vertex 0.070360199 -0.79810899 -0.0199979
  vertex 0.075001702 -0.97503901 -0.0093445396
  endloop
 endfacet

 facet normal -0.15537894 -0.038750187 -0.98709464
  outer loop
  vertex 0.0368024 -0.99289298 0.0026906
  vertex 0.00078284502 -0.97542697 0.00767481
  vertex -0.01485 -0.61436099 -0.0040387399
  endloop
 endfacet

 facet normal -0.16364007 -0.043185513 -0.98557436
  outer loop
  vertex 0.0115154 -0.20363601 -0.026413299
  vertex -0.01485 -0.61436099 -0.0040387399
  vertex -0.054835599 -0.29086399 -0.0115746
  endloop
 endfacet

 facet normal 0.23454815 -0.030447617 -0.97162753
  outer loop
  vertex -0.029892599 -0.96582401 0.0033436799
  vertex -0.054905199 -0.803689 -0.0077750599
  vertex -0.01485 -0.61436099 -0.0040387399
  endloop
 endfacet

 facet normal 0.12733297 -0.0073657278 -0.99183267
  outer loop
  vertex -0.054905199 -0.803689 -0.0077750599
  vertex -0.054835599 -0.29086399 -0.0115746
  vertex -0.01485 -0.61436099 -0.0040387399
  endloop
 endfacet

 facet normal 0.020128008 0.0087147932 -0.99975944
  outer loop
  vertex -0.054835599 -0.29086399 -0.0115746
  vertex -0.055691101 -0.066171497 -0.0096331704
  vertex -0.00174063 -0.081834897 -0.0086835297
  endloop
 endfacet

 facet normal -0.33958006 0.099192321 -0.93533218
  outer loop
  vertex 0.0115154 -0.20363601 -0.026413299
  vertex -0.054835599 -0.29086399 -0.0115746
  vertex -0.00174063 -0.081834897 -0.0086835297
  endloop
 endfacet

 facet normal -0.74617779 -0.048960187 -0.66394383
  outer loop
  vertex 0.0115154 -0.20363601 -0.026413299
  vertex 0.118578 -0.30299899 -0.13940901
  vertex 0.056049801 -0.54557002 -0.0512488
  endloop
 endfacet

 facet normal -0.5471518 -0.010471397 -0.83696783
  outer loop
  vertex 0.0115154 -0.20363601 -0.026413299
  vertex 0.056049801 -0.54557002 -0.0512488
  vertex -0.01485 -0.61436099 -0.0040387399
  endloop
 endfacet

 facet normal -0.30399585 -0.058385868 -0.95088249
  outer loop
  vertex -0.01485 -0.61436099 -0.0040387399
  vertex 0.070360199 -0.79810899 -0.0199979
  vertex 0.0368024 -0.99289298 0.0026906
  endloop
 endfacet

 facet normal -0.41191202 0.90642709 -0.093372703
  outer loop
  vertex 0.0226319 -0.110745 -0.133017
  vertex -0.0121224 -0.120255 -0.072024301
  vertex 0.016113801 -0.103875 -0.0375713
  endloop
 endfacet

 facet normal -0.38374284 -0.92256469 0.04019729
  outer loop
  vertex 0.0226319 -0.110745 -0.133017
  vertex 0.016113801 -0.103875 -0.0375713
  vertex -0.0148637 -0.093664303 -0.0989573
  endloop
 endfacet

 facet normal 0.56882799 0.68237609 -0.45912704
  outer loop
  vertex -0.0122597 0.13466799 -0.046329901
  vertex 0.016591201 0.104876 -0.054864202
  vertex -0.00674525 0.093800597 -0.100237
  endloop
 endfacet

 facet normal 0.4206399 -0.73800182 -0.52765089
  outer loop
  vertex -0.0177061 -0.0059091598 -0.0110817
  vertex -0.00274884 0.026952101 -0.045119401
  vertex 0.019377301 0.0148156 -0.0105058
  endloop
 endfacet

 facet normal -0.0017528094 0.030907491 -0.99952072
  outer loop
  vertex 0.0083060404 -0.026835799 -0.0117744
  vertex -0.0177061 -0.0059091598 -0.0110817
  vertex 0.019377301 0.0148156 -0.0105058
  endloop
 endfacet

 facet normal -0.53649718 0.18032806 -0.82441038
  outer loop
  vertex 0.022755999 -0.115931 -0.029608401
  vertex 0.072374597 -0.20495801 -0.081371903
  vertex 0.00138781 -0.137464 -0.0204127
  endloop
 endfacet

 facet normal 0.70149904 -0.7117331 -0.036538508
  outer loop
  vertex 0.00138781 -0.137464 -0.0204127
  vertex 0.0226319 -0.110745 -0.133017
  vertex 0.022755999 -0.115931 -0.029608401
  endloop
 endfacet

 facet normal 0.031739205 0.096671522 -0.99481016
  outer loop
  vertex -0.023187499 -0.121853 -0.0140071
  vertex -0.055691101 -0.066171497 -0.0096331704
  vertex -0.00867444 -0.077304199 -0.0092149395
  endloop
 endfacet

 facet normal -0.95106995 0.30883601 0.0092913788
  outer loop
  vertex -0.00867444 -0.077304199 -0.0092149395
  vertex -0.0148637 -0.093664303 -0.0989573
  vertex -0.023187499 -0.121853 -0.0140071
  endloop
 endfacet

 facet normal -0.66957712 -0.034105908 -0.7419591
  outer loop
  vertex 0.040650599 -0.549299 -0.0369143
  vertex 0.00138781 -0.137464 -0.0204127
  vertex 0.072374597 -0.20495801 -0.081371903
  endloop
 endfacet

 facet normal -0.78985119 -0.0064095408 -0.6132651
  outer loop
  vertex 0.040650599 -0.549299 -0.0369143
  vertex 0.072374597 -0.20495801 -0.081371903
  vertex 0.118975 -0.372814 -0.139636
  endloop
 endfacet

 facet normal -0.39972499 -0.118701 -0.90891695
  outer loop
  vertex 0.040650599 -0.549299 -0.0369143
  vertex 0.078775801 -0.81362498 -0.0191612
  vertex 0.00129643 -0.676714 -0.0029672
  endloop
 endfacet

 facet normal -0.2779761 -0.051835019 -0.95918834
  outer loop
  vertex 0.075001702 -0.97503901 -0.0093445396
  vertex 0.0368024 -0.99289298 0.0026906
  vertex 0.078775801 -0.81362498 -0.0191612
  endloop
 endfacet

 facet normal -0.084676571 -0.027332189 -0.99603355
  outer loop
  vertex 0.00129643 -0.676714 -0.0029672
  vertex 0.0368024 -0.99289298 0.0026906
  vertex -0.022703899 -0.85297501 0.0039099501
  endloop
 endfacet

 facet normal -0.4933587 -0.078421757 -0.86628354
  outer loop
  vertex 0.040650599 -0.549299 -0.0369143
  vertex 0.00129643 -0.676714 -0.0029672
  vertex -0.0303961 -0.36695701 -0.0129591
  endloop
 endfacet

 facet normal 0.31985402 -0.015621802 -0.94733804
  outer loop
  vertex -0.022703899 -0.85297501 0.0039099501
  vertex -0.029892599 -0.96582401 0.0033436799
  vertex -0.054905199 -0.803689 -0.0077750599
  endloop
 endfacet

 facet normal 0.42208883 0.0029469989 -0.90654963
  outer loop
  vertex -0.029892599 -0.96582401 0.0033436799
  vertex -0.0533484 -0.95098299 -0.0075290399
  vertex -0.054905199 -0.803689 -0.0077750599
  endloop
 endfacet

 facet normal 0.24272105 -0.070798919 -0.96750915
  outer loop
  vertex -0.022703899 -0.85297501 0.0039099501
  vertex -0.054905199 -0.803689 -0.0077750599
  vertex 0.00129643 -0.676714 -0.0029672
  endloop
 endfacet

 facet normal 0.12760502 -0.018932104 -0.99164426
  outer loop
  vertex 0.00129643 -0.676714 -0.0029672
  vertex -0.054905199 -0.803689 -0.0077750599
  vertex -0.0303961 -0.36695701 -0.0129591
  endloop
 endfacet

 facet normal -0.15145402 -0.0032337103 -0.98845905
  outer loop
  vertex -0.0303961 -0.36695701 -0.0129591
  vertex -0.054905199 -0.803689 -0.0077750599
  vertex -0.058346201 -0.188043 -0.0092618801
  endloop
 endfacet

 facet normal -0.19194701 -0.0052902005 -0.98139107
  outer loop
  vertex -0.0303961 -0.36695701 -0.0129591
  vertex -0.055691101 -0.066171497 -0.0096331704
  vertex 0.00138781 -0.137464 -0.0204127
  endloop
 endfacet

 facet normal 0.31567812 0.11024304 0.94244033
  outer loop
  vertex 0.00138781 -0.137464 -0.0204127
  vertex -0.055691101 -0.066171497 -0.0096331704
  vertex -0.023187499 -0.121853 -0.0140071
  endloop
 endfacet

 facet normal -0.29630312 0.010018503 -0.95504141
  outer loop
  vertex 0.00138781 -0.137464 -0.0204127
  vertex 0.040650599 -0.549299 -0.0369143
  vertex -0.0303961 -0.36695701 -0.0129591
  endloop
 endfacet

 facet normal -0.28717411 -0.049366519 -0.95660543
  outer loop
  vertex 0.0368024 -0.99289298 0.0026906
  vertex 0.00129643 -0.676714 -0.0029672
  vertex 0.078775801 -0.81362498 -0.0191612
  endloop
 endfacet

 facet normal 0.95920849 -0.28180781 0.022439485
  outer loop
  vertex 0.0229853 0.118236 -0.0121112
  vertex 0.0142935 0.088639997 -0.0122476
  vertex 0.0173898 0.089332901 -0.135902
  endloop
 endfacet

 facet normal 0.19115397 -0.98155987 -0.00071382686
  outer loop
  vertex 0.0173898 0.089332901 -0.135902
  vertex 0.0142935 0.088639997 -0.0122476
  vertex -0.0049745198 0.084886096 -0.010146
  endloop
 endfacet

 facet normal -0.55696118 -0.82060528 -0.12806705
  outer loop
  vertex 0.0173898 0.089332901 -0.135902
  vertex -0.0049745198 0.084886096 -0.010146
  vertex -0.026551001 0.101783 -0.024576301
  endloop
 endfacet

 facet normal -0.030548014 -0.025678009 -0.99920344
  outer loop
  vertex 0.0142935 0.088639997 -0.0122476
  vertex 0.0559242 -0.064966097 -0.0095728897
  vertex 0.019377301 0.0148156 -0.0105058
  endloop
 endfacet

 facet normal 0.28664592 -0.56513083 -0.77360278
  outer loop
  vertex -0.083571397 0.140031 -0.073645599
  vertex -0.026551001 0.101783 -0.024576301
  vertex -0.055858199 0.066586003 -0.0097238896
  endloop
 endfacet

 facet normal 0.17352097 -0.50202191 -0.84726876
  outer loop
  vertex -0.055858199 0.066586003 -0.0097238896
  vertex -0.026551001 0.101783 -0.024576301
  vertex -0.0049745198 0.084886096 -0.010146
  endloop
 endfacet

 facet normal 0.87346464 0.4863278 0.023343489
  outer loop
  vertex 0.0226319 -0.110745 -0.133017
  vertex 0.00449618 -0.083628803 -0.0193353
  vertex 0.022755999 -0.115931 -0.029608401
  endloop
 endfacet

 facet normal 0.058133092 0.33225095 -0.94139785
  outer loop
  vertex 0.0559242 -0.064966097 -0.0095728897
  vertex 0.022755999 -0.115931 -0.029608401
  vertex 0.00449618 -0.083628803 -0.0193353
  endloop
 endfacet

 facet normal -0.35583478 0.5332827 -0.7674576
  outer loop
  vertex 0.022755999 -0.115931 -0.029608401
  vertex 0.0559242 -0.064966097 -0.0095728897
  vertex 0.083117001 -0.138354 -0.073176198
  endloop
 endfacet

 facet normal -0.52827418 0.18711507 -0.82819939
  outer loop
  vertex 0.083117001 -0.138354 -0.073176198
  vertex 0.072374597 -0.20495801 -0.081371903
  vertex 0.022755999 -0.115931 -0.029608401
  endloop
 endfacet

 facet normal 0.058121677 0.014952093 -0.99819756
  outer loop
  vertex 0.019377301 0.0148156 -0.0105058
  vertex 0.0559242 -0.064966097 -0.0095728897
  vertex 0.0083060404 -0.026835799 -0.0117744
  endloop
 endfacet

 facet normal 0.14248593 0.12122294 -0.98234546
  outer loop
  vertex 0.0559242 -0.064966097 -0.0095728897
  vertex 0.00449618 -0.083628803 -0.0193353
  vertex 0.0083060404 -0.026835799 -0.0117744
  endloop
 endfacet

 facet normal -0.012637702 0.012075402 -0.99984723
  outer loop
  vertex -0.0049745198 0.084886096 -0.010146
  vertex -0.0177061 -0.0059091598 -0.0110817
  vertex -0.055858199 0.066586003 -0.0097238896
  endloop
 endfacet

 facet normal -0.036949996 -0.00072937587 -0.99931687
  outer loop
  vertex -0.055858199 0.066586003 -0.0097238896
  vertex -0.0177061 -0.0059091598 -0.0110817
  vertex -0.055691101 -0.066171497 -0.0096331704
  endloop
 endfacet

 facet normal 0.0027868189 -0.025784889 -0.99966359
  outer loop
  vertex -0.055691101 -0.066171497 -0.0096331704
  vertex -0.0177061 -0.0059091598 -0.0110817
  vertex -0.00867444 -0.077304199 -0.0092149395
  endloop
 endfacet

 facet normal 0.30170396 0.93405592 -0.19108698
  outer loop
  vertex -0.0148637 -0.093664303 -0.0989573
  vertex -0.00867444 -0.077304199 -0.0092149395
  vertex 0.00449618 -0.083628803 -0.0193353
  endloop
 endfacet

 facet normal 0.26446986 0.94674945 -0.1836329
  outer loop
  vertex -0.0148637 -0.093664303 -0.0989573
  vertex 0.00449618 -0.083628803 -0.0193353
  vertex 0.0226319 -0.110745 -0.133017
  endloop
 endfacet

 facet normal -0.9304477 0.20221394 -0.30557591
  outer loop
  vertex -0.00392095 0.206809 -0.0239818
  vertex -0.0122597 0.13466799 -0.046329901
  vertex -0.026551001 0.101783 -0.024576301
  endloop
 endfacet

 facet normal 0.44130418 0.013807505 -0.89725131
  outer loop
  vertex -0.00392095 0.206809 -0.0239818
  vertex 0.00030132601 0.37745601 -0.019278999
  vertex 0.0229853 0.118236 -0.0121112
  endloop
 endfacet

 facet normal 0.55055004 -0.21432303 -0.80682111
  outer loop
  vertex -0.093725897 0.247795 -0.109201
  vertex -0.026551001 0.101783 -0.024576301
  vertex -0.083571397 0.140031 -0.073645599
  endloop
 endfacet

 facet normal 0.2806299 0.047787882 -0.95862561
  outer loop
  vertex -0.078479998 0.83986098 -0.0171015
  vertex -0.075001702 0.97503901 -0.0093445396
  vertex -0.025567999 0.993204 0.00603233
  endloop
 endfacet

 facet normal -0.33254007 0.016982405 -0.94293624
  outer loop
  vertex 0.029894801 0.96582401 0.00334253
  vertex 0.057445701 0.79146302 -0.0095139705
  vertex 0.0227405 0.85053003 0.0037891499
  endloop
 endfacet

 facet normal -0.41911981 0.0007207247 -0.90793061
  outer loop
  vertex 0.057445701 0.79146302 -0.0095139705
  vertex 0.029894801 0.96582401 0.00334253
  vertex 0.053552002 0.95091802 -0.00758994
  endloop
 endfacet

 facet normal -0.26813895 0.059018489 -0.96157074
  outer loop
  vertex 0.0227405 0.85053003 0.0037891499
  vertex 0.057445701 0.79146302 -0.0095139705
  vertex 0.0078732297 0.60327798 -0.0072406898
  endloop
 endfacet

 facet normal -0.27308306 0.060338516 -0.96009624
  outer loop
  vertex 0.0078732297 0.60327798 -0.0072406898
  vertex 0.057445701 0.79146302 -0.0095139705
  vertex 0.00030132601 0.37745601 -0.019278999
  endloop
 endfacet

 facet normal 0.038966108 -0.0068383319 -0.99921715
  outer loop
  vertex 0.0142935 0.088639997 -0.0122476
  vertex 0.0229853 0.118236 -0.0121112
  vertex 0.0559242 -0.064966097 -0.0095728897
  endloop
 endfacet

 facet normal 0.72088605 0.12769501 -0.68118805
  outer loop
  vertex 0.0229853 0.118236 -0.0121112
  vertex -0.0122597 0.13466799 -0.046329901
  vertex -0.00392095 0.206809 -0.0239818
  endloop
 endfacet

 facet normal 0.68904281 0.0029229992 -0.72471482
  outer loop
  vertex -0.093725897 0.247795 -0.109201
  vertex 0.00030132601 0.37745601 -0.019278999
  vertex -0.00392095 0.206809 -0.0239818
  endloop
 endfacet

 facet normal 0.64874095 -0.13554499 -0.74884093
  outer loop
  vertex -0.026551001 0.101783 -0.024576301
  vertex -0.093725897 0.247795 -0.109201
  vertex -0.00392095 0.206809 -0.0239818
  endloop
 endfacet

 facet normal 0.63613611 0.071487315 -0.76825809
  outer loop
  vertex 0.00030132601 0.37745601 -0.019278999
  vertex -0.093725897 0.247795 -0.109201
  vertex -0.0410062 0.563133 -0.036205299
  endloop
 endfacet

 facet normal 0.49125078 0.029933887 -0.87050372
  outer loop
  vertex 0.00030132601 0.37745601 -0.019278999
  vertex -0.0410062 0.563133 -0.036205299
  vertex 0.0078732297 0.60327798 -0.0072406898
  endloop
 endfacet

 facet normal 0.072201505 0.040115699 -0.99658298
  outer loop
  vertex 0.0078732297 0.60327798 -0.0072406898
  vertex -0.025567999 0.993204 0.00603233
  vertex 0.0227405 0.85053003 0.0037891499
  endloop
 endfacet

 facet normal 0.26131502 0.055214405 -0.96367306
  outer loop
  vertex 0.0078732297 0.60327798 -0.0072406898
  vertex -0.078479998 0.83986098 -0.0171015
  vertex -0.025567999 0.993204 0.00603233
  endloop
 endfacet

 facet normal -0.93967038 -0.28637809 -0.18710208
  outer loop
  vertex -0.0148637 -0.093664303 -0.0989573
  vertex -0.0121224 -0.120255 -0.072024301
  vertex -0.023187499 -0.121853 -0.0140071
  endloop
 endfacet

 facet normal 0.32057494 -0.94657385 0.035066891
  outer loop
  vertex -0.023187499 -0.121853 -0.0140071
  vertex -0.0121224 -0.120255 -0.072024301
  vertex 0.0226319 -0.110745 -0.133017
  endloop
 endfacet

 facet normal -0.56586021 -0.77185237 -0.28990716
  outer loop
  vertex -0.023187499 -0.121853 -0.0140071
  vertex 0.0226319 -0.110745 -0.133017
  vertex 0.00138781 -0.137464 -0.0204127
  endloop
 endfacet

 facet normal 0.63496983 0.70524174 -0.31535289
  outer loop
  vertex 0.0229853 0.118236 -0.0121112
  vertex 0.016591201 0.104876 -0.054864202
  vertex -0.0122597 0.13466799 -0.046329901
  endloop
 endfacet

 facet normal -0.93560195 0.228627 -0.26903298
  outer loop
  vertex -0.0122597 0.13466799 -0.046329901
  vertex -0.00674525 0.093800597 -0.100237
  vertex -0.026551001 0.101783 -0.024576301
  endloop
 endfacet

 facet normal -0.047388479 -0.99458247 0.092520148
  outer loop
  vertex -0.026551001 0.101783 -0.024576301
  vertex -0.00674525 0.093800597 -0.100237
  vertex 0.0173898 0.089332901 -0.135902
  endloop
 endfacet

 facet normal -0.097495437 0.97724235 -0.18839307
  outer loop
  vertex 0.0173898 0.089332901 -0.135902
  vertex -0.00674525 0.093800597 -0.100237
  vertex 0.016591201 0.104876 -0.054864202
  endloop
 endfacet

 facet normal -0.59616089 0.78738582 -0.15689395
  outer loop
  vertex 0.0173898 0.089332901 -0.135902
  vertex 0.016591201 0.104876 -0.054864202
  vertex 0.0229853 0.118236 -0.0121112
  endloop
 endfacet

 facet normal -0.87191796 0.017505201 -0.48933896
  outer loop
  vertex -0.058478002 0.064180598 -4.2930897e-06
  vertex -0.055691101 -0.066171497 -0.0096331704
  vertex -0.058346201 -0.188043 -0.0092618801
  endloop
 endfacet

 facet normal -0.96545339 -0.0013931605 -0.26057211
  outer loop
  vertex -0.058478002 0.064180598 -4.2930897e-06
  vertex -0.055858199 0.066586003 -0.0097238896
  vertex -0.055691101 -0.066171497 -0.0096331704
  endloop
 endfacet

 facet normal 0.51102418 0.22912405 -0.82846624
  outer loop
  vertex -0.118667 0.43938601 -0.118333
  vertex -0.0410062 0.563133 -0.036205299
  vertex -0.118004 0.36450601 -0.138633
  endloop
 endfacet

 facet normal 0.65456313 0.13992801 -0.74294513
  outer loop
  vertex -0.078479998 0.83986098 -0.0171015
  vertex -0.0410062 0.563133 -0.036205299
  vertex -0.104112 0.54621702 -0.094989598
  endloop
 endfacet

 facet normal 0.43122405 0.12012701 -0.89421213
  outer loop
  vertex -0.078479998 0.83986098 -0.0171015
  vertex 0.0078732297 0.60327798 -0.0072406898
  vertex -0.0410062 0.563133 -0.036205299
  endloop
 endfacet

 facet normal 0.79008901 0.0097892899 -0.61291403
  outer loop
  vertex -0.0410062 0.563133 -0.036205299
  vertex -0.093725897 0.247795 -0.109201
  vertex -0.118004 0.36450601 -0.138633
  endloop
 endfacet

 facet normal 0.66977525 0.070273325 -0.73923123
  outer loop
  vertex -0.0410062 0.563133 -0.036205299
  vertex -0.118667 0.43938601 -0.118333
  vertex -0.104112 0.54621702 -0.094989598
  endloop
 endfacet

 facet normal -0.54713488 0.014732896 0.83691484
  outer loop
  vertex -0.075001702 0.97503901 -0.0093445396
  vertex -0.080547303 0.82881099 -0.0103958
  vertex -0.040872201 1.0011801 0.0125076
  endloop
 endfacet

 facet normal -0.97101992 0.038521197 -0.23587398
  outer loop
  vertex -0.078479998 0.83986098 -0.0171015
  vertex -0.080547303 0.82881099 -0.0103958
  vertex -0.075001702 0.97503901 -0.0093445396
  endloop
 endfacet

 facet normal 0.0056689233 0.63705635 -0.77079642
  outer loop
  vertex -0.075001702 0.97503901 -0.0093445396
  vertex -0.040872201 1.0011801 0.0125076
  vertex -0.025567999 0.993204 0.00603233
  endloop
 endfacet

 facet normal 0.16354205 0.07084512 -0.9839893
  outer loop
  vertex -0.025567999 0.993204 0.00603233
  vertex 0.0303766 0.95586997 0.0126425
  vertex 0.0227405 0.85053003 0.0037891499
  endloop
 endfacet

 facet normal -0.99111903 0.061957598 0.11766198
  outer loop
  vertex 0.0227405 0.85053003 0.0037891499
  vertex 0.0303766 0.95586997 0.0126425
  vertex 0.029894801 0.96582401 0.00334253
  endloop
 endfacet

 facet normal -0.14773396 -0.040253486 -0.98820764
  outer loop
  vertex 0.0229853 0.118236 -0.0121112
  vertex 0.00030132601 0.37745601 -0.019278999
  vertex 0.0559242 -0.064966097 -0.0095728897
  endloop
 endfacet

 facet normal 0.17009203 -0.00023440503 -0.98542815
  outer loop
  vertex 0.00030132601 0.37745601 -0.019278999
  vertex 0.057445701 0.79146302 -0.0095139705
  vertex 0.0559242 -0.064966097 -0.0095728897
  endloop
 endfacet

 facet normal 0.97380245 -0.001714439 -0.22738889
  outer loop
  vertex 0.0582776 0.069970697 -0.00051170803
  vertex 0.0559242 -0.064966097 -0.0095728897
  vertex 0.057445701 0.79146302 -0.0095139705
  endloop
 endfacet

 facet normal -0.48497906 0.87041509 0.084692806
  outer loop
  vertex -0.058478002 0.064180598 -4.2930897e-06
  vertex -0.0142037 0.088964097 -0.00118289
  vertex -0.055858199 0.066586003 -0.0097238896
  endloop
 endfacet

 facet normal -0.37760398 0.38071099 0.844082
  outer loop
  vertex -0.11474 0.25634199 -0.121651
  vertex -0.055858199 0.066586003 -0.0097238896
  vertex -0.0142037 0.088964097 -0.00118289
  endloop
 endfacet

 facet normal -0.8150081 0.22749001 -0.53292608
  outer loop
  vertex -0.118667 0.43938601 -0.118333
  vertex -0.080547303 0.82881099 -0.0103958
  vertex -0.104112 0.54621702 -0.094989598
  endloop
 endfacet

 facet normal 0.46827298 -0.12323399 -0.87494797
  outer loop
  vertex -0.11474 0.25634199 -0.121651
  vertex -0.118004 0.36450601 -0.138633
  vertex -0.093725897 0.247795 -0.109201
  endloop
 endfacet

 facet normal -0.95968229 -0.16251107 0.22934708
  outer loop
  vertex -0.055858199 0.066586003 -0.0097238896
  vertex -0.11474 0.25634199 -0.121651
  vertex -0.083571397 0.140031 -0.073645599
  endloop
 endfacet

 facet normal 0.41663408 -0.24919006 -0.87425417
  outer loop
  vertex -0.083571397 0.140031 -0.073645599
  vertex -0.11474 0.25634199 -0.121651
  vertex -0.093725897 0.247795 -0.109201
  endloop
 endfacet

 facet normal -0.99851316 -0.022324605 0.049730707
  outer loop
  vertex -0.118004 0.36450601 -0.138633
  vertex -0.11474 0.25634199 -0.121651
  vertex -0.118667 0.43938601 -0.118333
  endloop
 endfacet

 facet normal -0.72023511 -0.11893301 0.68345904
  outer loop
  vertex -0.118667 0.43938601 -0.118333
  vertex -0.0603939 0.50963598 -0.044699602
  vertex -0.080547303 0.82881099 -0.0103958
  endloop
 endfacet

 facet normal 0.0042026308 0.009587842 0.99994522
  outer loop
  vertex 0.00393641 0.76775402 0.0145574
  vertex 0.0303766 0.95586997 0.0126425
  vertex -0.040872201 1.0011801 0.0125076
  endloop
 endfacet

 facet normal 0.40184999 0.63547897 0.65930498
  outer loop
  vertex 0.0303766 0.95586997 0.0126425
  vertex 0.0573177 0.95199198 -4.06283e-05
  vertex 0.029894801 0.96582401 0.00334253
  endloop
 endfacet

 facet normal 0.39497301 0.86129802 -0.319628
  outer loop
  vertex 0.053552002 0.95091802 -0.00758994
  vertex 0.029894801 0.96582401 0.00334253
  vertex 0.0573177 0.95199198 -4.06283e-05
  endloop
 endfacet

 facet normal 0.89296496 0.027227096 -0.44930196
  outer loop
  vertex 0.057445701 0.79146302 -0.0095139705
  vertex 0.053552002 0.95091802 -0.00758994
  vertex 0.0573177 0.95199198 -4.06283e-05
  endloop
 endfacet

 facet normal 0.42589685 -0.00031751889 0.90477169
  outer loop
  vertex 0.0303766 0.95586997 0.0126425
  vertex 0.056214899 0.61831498 0.00036139099
  vertex 0.0573177 0.95199198 -4.06283e-05
  endloop
 endfacet

 facet normal -0.097063817 -0.0019498504 0.99527615
  outer loop
  vertex 0.029778199 0.463137 -0.0025208499
  vertex 0.0582776 0.069970697 -0.00051170803
  vertex 0.056214899 0.61831498 0.00036139099
  endloop
 endfacet

 facet normal -0.008074061 0.0045246603 0.99995714
  outer loop
  vertex 0.029778199 0.463137 -0.0025208499
  vertex -0.0142037 0.088964097 -0.00118289
  vertex 0.0582776 0.069970697 -0.00051170803
  endloop
 endfacet

 facet normal 0.99998707 0.0010909401 -0.0049685803
  outer loop
  vertex 0.0582776 0.069970697 -0.00051170803
  vertex 0.057445701 0.79146302 -0.0095139705
  vertex 0.0573177 0.95199198 -4.06283e-05
  endloop
 endfacet

 facet normal 0.36802706 -9.6081516e-05 0.92981511
  outer loop
  vertex 0.056214899 0.61831498 0.00036139099
  vertex 0.0582776 0.069970697 -0.00051170803
  vertex 0.0573177 0.95199198 -4.06283e-05
  endloop
 endfacet

 facet normal 0.2096649 -0.01951799 0.97757846
  outer loop
  vertex 0.0303766 0.95586997 0.0126425
  vertex 0.00393641 0.76775402 0.0145574
  vertex 0.056214899 0.61831498 0.00036139099
  endloop
 endfacet

 facet normal -0.98679996 0.11608599 -0.11291599
  outer loop
  vertex -0.104112 0.54621702 -0.094989598
  vertex -0.080547303 0.82881099 -0.0103958
  vertex -0.078479998 0.83986098 -0.0171015
  endloop
 endfacet

 facet normal 0.52279693 0.82284194 0.22274297
  outer loop
  vertex -0.040872201 1.0011801 0.0125076
  vertex 0.0303766 0.95586997 0.0126425
  vertex -0.025567999 0.993204 0.00603233
  endloop
 endfacet

 facet normal 0.040691283 -0.016857093 0.99902952
  outer loop
  vertex 0.058265299 -0.073248602 -0.00292781
  vertex 0.0582776 0.069970697 -0.00051170803
  vertex -0.0129714 -0.087521203 -0.00026710599
  endloop
 endfacet

 facet normal -0.0079144854 0.0051335376 0.99995548
  outer loop
  vertex -0.0129714 -0.087521203 -0.00026710599
  vertex 0.0582776 0.069970697 -0.00051170803
  vertex -0.0142037 0.088964097 -0.00118289
  endloop
 endfacet

 facet normal 0.023616495 0.0053524091 0.99970675
  outer loop
  vertex -0.0129714 -0.087521203 -0.00026710599
  vertex -0.0142037 0.088964097 -0.00118289
  vertex -0.058478002 0.064180598 -4.2930897e-06
  endloop
 endfacet

 facet normal 0.0010921605 -0.0014048107 0.99999839
  outer loop
  vertex -0.0129714 -0.087521203 -0.00026710599
  vertex -0.058478002 0.064180598 -4.2930897e-06
  vertex -0.057840899 -0.075644404 -0.000201417
  endloop
 endfacet

 facet normal 0.5719921 -0.49079809 0.65722311
  outer loop
  vertex 0.058265299 -0.073248602 -0.00292781
  vertex 0.037037101 -0.13461 -0.0302756
  vertex 0.083117001 -0.138354 -0.073176198
  endloop
 endfacet

 facet normal 0.9498719 0.30861294 0.050014798
  outer loop
  vertex 0.058265299 -0.073248602 -0.00292781
  vertex 0.083117001 -0.138354 -0.073176198
  vertex 0.0559242 -0.064966097 -0.0095728897
  endloop
 endfacet

 facet normal 0.94526494 0.0054225596 -0.32625896
  outer loop
  vertex 0.0559242 -0.064966097 -0.0095728897
  vertex 0.0582776 0.069970697 -0.00051170803
  vertex 0.058265299 -0.073248602 -0.00292781
  endloop
 endfacet

 facet normal -0.54362404 0.188326 -0.81792802
  outer loop
  vertex 0.083117001 -0.138354 -0.073176198
  vertex 0.123134 -0.27807701 -0.131944
  vertex 0.072374597 -0.20495801 -0.081371903
  endloop
 endfacet

 facet normal -0.64079213 -0.15344103 -0.75222421
  outer loop
  vertex 0.112117 -0.48396599 -0.11112
  vertex 0.040650599 -0.549299 -0.0369143
  vertex 0.118975 -0.372814 -0.139636
  endloop
 endfacet

 facet normal 0.94709277 -0.17147096 -0.27131695
  outer loop
  vertex 0.0818296 -0.80871499 -0.0116048
  vertex 0.078775801 -0.81362498 -0.0191612
  vertex 0.112117 -0.48396599 -0.11112
  endloop
 endfacet

 facet normal -0.6466307 -0.14358394 -0.74916768
  outer loop
  vertex 0.078775801 -0.81362498 -0.0191612
  vertex 0.040650599 -0.549299 -0.0369143
  vertex 0.112117 -0.48396599 -0.11112
  endloop
 endfacet

 facet normal 0.54514003 -0.0109876 0.83827299
  outer loop
  vertex 0.075001702 -0.97503901 -0.0093445396
  vertex 0.0818296 -0.80871499 -0.0116048
  vertex 0.040872201 -1.0011801 0.0125076
  endloop
 endfacet

 facet normal 0.93571776 -0.043170691 -0.35009792
  outer loop
  vertex 0.078775801 -0.81362498 -0.0191612
  vertex 0.0818296 -0.80871499 -0.0116048
  vertex 0.075001702 -0.97503901 -0.0093445396
  endloop
 endfacet

 facet normal 0.13001992 -0.73026359 -0.67067856
  outer loop
  vertex 0.075001702 -0.97503901 -0.0093445396
  vertex 0.040872201 -1.0011801 0.0125076
  vertex 0.0368024 -0.99289298 0.0026906
  endloop
 endfacet

 facet normal -0.18351899 -0.069504 -0.98055595
  outer loop
  vertex 0.0368024 -0.99289298 0.0026906
  vertex -0.0298975 -0.95689398 0.0126223
  vertex -0.022703899 -0.85297501 0.0039099501
  endloop
 endfacet

 facet normal 0.99604481 -0.063761093 0.061880492
  outer loop
  vertex -0.022703899 -0.85297501 0.0039099501
  vertex -0.0298975 -0.95689398 0.0126223
  vertex -0.029892599 -0.96582401 0.0033436799
  endloop
 endfacet

 facet normal -0.13203906 -0.00014324205 -0.99124449
  outer loop
  vertex -0.055691101 -0.066171497 -0.0096331704
  vertex -0.0303961 -0.36695701 -0.0129591
  vertex -0.058346201 -0.188043 -0.0092618801
  endloop
 endfacet

 facet normal 0.67182279 -0.11533296 0.73167777
  outer loop
  vertex 0.083117001 -0.138354 -0.073176198
  vertex 0.037037101 -0.13461 -0.0302756
  vertex 0.123134 -0.27807701 -0.131944
  endloop
 endfacet

 facet normal 0.69728893 0.13032499 0.70484293
  outer loop
  vertex 0.0818296 -0.80871499 -0.0116048
  vertex 0.118766 -0.44238901 -0.115879
  vertex 0.060981698 -0.51919001 -0.044512901
  endloop
 endfacet

 facet normal 0.92830175 -0.18535197 -0.32233593
  outer loop
  vertex 0.112117 -0.48396599 -0.11112
  vertex 0.118766 -0.44238901 -0.115879
  vertex 0.0818296 -0.80871499 -0.0116048
  endloop
 endfacet

 facet normal 0.0095195407 0.012620202 0.99987513
  outer loop
  vertex -0.0056122099 -0.65254402 0.00854968
  vertex -0.0298975 -0.95689398 0.0126223
  vertex 0.040872201 -1.0011801 0.0125076
  endloop
 endfacet

 facet normal -0.40960607 -0.65743607 0.63245606
  outer loop
  vertex -0.0298975 -0.95689398 0.0126223
  vertex -0.0573177 -0.95199198 -4.06283e-05
  vertex -0.029892599 -0.96582401 0.0033436799
  endloop
 endfacet

 facet normal -0.39367092 -0.86002481 -0.32462391
  outer loop
  vertex -0.0533484 -0.95098299 -0.0075290399
  vertex -0.029892599 -0.96582401 0.0033436799
  vertex -0.0573177 -0.95199198 -4.06283e-05
  endloop
 endfacet

 facet normal 0.018668493 0.00019458892 0.99982572
  outer loop
  vertex -0.0573177 -0.95199198 -4.06283e-05
  vertex -0.051172599 -0.503887 -0.000242579
  vertex -0.057840899 -0.075644404 -0.000201417
  endloop
 endfacet

 facet normal -0.99801892 -0.00058430393 0.062911697
  outer loop
  vertex -0.057840899 -0.075644404 -0.000201417
  vertex -0.058346201 -0.188043 -0.0092618801
  vertex -0.0573177 -0.95199198 -4.06283e-05
  endloop
 endfacet

 facet normal -0.91548598 -0.0060885595 -0.40230399
  outer loop
  vertex -0.058346201 -0.188043 -0.0092618801
  vertex -0.054905199 -0.803689 -0.0077750599
  vertex -0.0573177 -0.95199198 -4.06283e-05
  endloop
 endfacet

 facet normal -0.41834882 0.0061463071 0.90826559
  outer loop
  vertex -0.0298975 -0.95689398 0.0126223
  vertex -0.051172599 -0.503887 -0.000242579
  vertex -0.0573177 -0.95199198 -4.06283e-05
  endloop
 endfacet

 facet normal 0.80714184 -0.19293797 -0.55793989
  outer loop
  vertex 0.118766 -0.44238901 -0.115879
  vertex 0.112117 -0.48396599 -0.11112
  vertex 0.118975 -0.372814 -0.139636
  endloop
 endfacet

 facet normal 0.99471009 -0.0358545 -0.096262001
  outer loop
  vertex 0.118766 -0.44238901 -0.115879
  vertex 0.118975 -0.372814 -0.139636
  vertex 0.123134 -0.27807701 -0.131944
  endloop
 endfacet

 facet normal -0.6347211 0.090180613 -0.76746112
  outer loop
  vertex 0.118975 -0.372814 -0.139636
  vertex 0.072374597 -0.20495801 -0.081371903
  vertex 0.123134 -0.27807701 -0.131944
  endloop
 endfacet

 facet normal -0.475878 -0.75923508 -0.44396204
  outer loop
  vertex 0.040872201 -1.0011801 0.0125076
  vertex -0.0298975 -0.95689398 0.0126223
  vertex 0.0368024 -0.99289298 0.0026906
  endloop
 endfacet

 facet normal -0.88294029 -0.010116003 -0.46937618
  outer loop
  vertex -0.0573177 -0.95199198 -4.06283e-05
  vertex -0.054905199 -0.803689 -0.0077750599
  vertex -0.0533484 -0.95098299 -0.0075290399
  endloop
 endfacet

 facet normal -0.99352068 -0.0046868888 0.11355495
  outer loop
  vertex -0.058346201 -0.188043 -0.0092618801
  vertex -0.057840899 -0.075644404 -0.000201417
  vertex -0.058478002 0.064180598 -4.2930897e-06
  endloop
 endfacet

 facet normal 0.12116402 -0.43875605 0.89040011
  outer loop
  vertex 0.037037101 -0.13461 -0.0302756
  vertex 0.058265299 -0.073248602 -0.00292781
  vertex -0.0129714 -0.087521203 -0.00026710599
  endloop
 endfacet

 facet normal -0.18983898 0.50205493 -0.84374291
  outer loop
  vertex -0.0049745198 0.084886096 -0.010146
  vertex 0.0142935 0.088639997 -0.0122476
  vertex -0.00274884 0.026952101 -0.045119401
  endloop
 endfacet

 facet normal 0.075518958 0.12661192 -0.9890734
  outer loop
  vertex 0.0083060404 -0.026835799 -0.0117744
  vertex 0.00449618 -0.083628803 -0.0193353
  vertex -0.0177061 -0.0059091598 -0.0110817
  endloop
 endfacet

 facet normal -0.63610458 -0.10047194 -0.7650336
  outer loop
  vertex -0.0177061 -0.0059091598 -0.0110817
  vertex 0.00449618 -0.083628803 -0.0193353
  vertex -0.00867444 -0.077304199 -0.0092149395
  endloop
 endfacet

 facet normal -0.94865412 0.13596602 -0.28560203
  outer loop
  vertex -0.00274884 0.026952101 -0.045119401
  vertex -0.0177061 -0.0059091598 -0.0110817
  vertex -0.0049745198 0.084886096 -0.010146
  endloop
 endfacet

 facet normal 0.84891909 0.046037208 -0.52651405
  outer loop
  vertex -0.00274884 0.026952101 -0.045119401
  vertex 0.0142935 0.088639997 -0.0122476
  vertex 0.019377301 0.0148156 -0.0105058
  endloop
 endfacet

 facet normal -0.010448503 -0.044998717 0.99893242
  outer loop
  vertex -0.0129714 -0.087521203 -0.00026710599
  vertex -0.057840899 -0.075644404 -0.000201417
  vertex 0.0103472 -0.41319999 -0.014694
  endloop
 endfacet

 facet normal 0.22393695 0.0033932994 0.97459775
  outer loop
  vertex 0.0103472 -0.41319999 -0.014694
  vertex -0.057840899 -0.075644404 -0.000201417
  vertex -0.051172599 -0.503887 -0.000242579
  endloop
 endfacet

 facet normal -0.11761998 0.022670496 0.99279988
  outer loop
  vertex -0.0056122099 -0.65254402 0.00854968
  vertex -0.051172599 -0.503887 -0.000242579
  vertex -0.0298975 -0.95689398 0.0126223
  endloop
 endfacet

 facet normal 0.3122139 0.052396085 0.94856584
  outer loop
  vertex 0.040872201 -1.0011801 0.0125076
  vertex 0.0818296 -0.80871499 -0.0116048
  vertex -0.0056122099 -0.65254402 0.00854968
  endloop
 endfacet

 facet normal 0.44146311 0.13265504 0.88741922
  outer loop
  vertex 0.0818296 -0.80871499 -0.0116048
  vertex 0.060981698 -0.51919001 -0.044512901
  vertex -0.0056122099 -0.65254402 0.00854968
  endloop
 endfacet

 facet normal 0.75261027 0.044227012 0.6569792
  outer loop
  vertex 0.060981698 -0.51919001 -0.044512901
  vertex 0.118766 -0.44238901 -0.115879
  vertex 0.123134 -0.27807701 -0.131944
  endloop
 endfacet

 facet normal 0.78030419 0.025449604 0.6248821
  outer loop
  vertex 0.060981698 -0.51919001 -0.044512901
  vertex 0.123134 -0.27807701 -0.131944
  vertex 0.037037101 -0.13461 -0.0302756
  endloop
 endfacet

 facet normal 0.51368999 -0.00122638 0.85797501
  outer loop
  vertex -0.0129714 -0.087521203 -0.00026710599
  vertex 0.0103472 -0.41319999 -0.014694
  vertex 0.037037101 -0.13461 -0.0302756
  endloop
 endfacet

 facet normal 0.50690371 -0.00035100681 0.86200249
  outer loop
  vertex 0.037037101 -0.13461 -0.0302756
  vertex 0.0103472 -0.41319999 -0.014694
  vertex 0.060981698 -0.51919001 -0.044512901
  endloop
 endfacet

 facet normal 0.10082301 0.089504711 0.99087012
  outer loop
  vertex 0.0103472 -0.41319999 -0.014694
  vertex -0.051172599 -0.503887 -0.000242579
  vertex -0.0056122099 -0.65254402 0.00854968
  endloop
 endfacet

 facet normal 0.57029784 0.041643389 0.8203817
  outer loop
  vertex 0.060981698 -0.51919001 -0.044512901
  vertex 0.0103472 -0.41319999 -0.014694
  vertex -0.0056122099 -0.65254402 0.00854968
  endloop
 endfacet

 facet normal -0.98905718 0.11593203 -0.091244616
  outer loop
  vertex -0.0142037 0.088964097 -0.00118289
  vertex 0.029778199 0.463137 -0.0025208499
  vertex 0.0056485198 0.249971 -0.0118047
  endloop
 endfacet

 facet normal 0.14521402 -0.043098703 0.98846114
  outer loop
  vertex 0.029778199 0.463137 -0.0025208499
  vertex 0.056214899 0.61831498 0.00036139099
  vertex 0.00393641 0.76775402 0.0145574
  endloop
 endfacet

 facet normal -0.31769404 -0.052672204 0.94672912
  outer loop
  vertex -0.040872201 1.0011801 0.0125076
  vertex -0.080547303 0.82881099 -0.0103958
  vertex 0.00393641 0.76775402 0.0145574
  endloop
 endfacet

 facet normal -0.77063274 -0.028075991 0.63666075
  outer loop
  vertex -0.0603939 0.50963598 -0.044699602
  vertex -0.118667 0.43938601 -0.118333
  vertex -0.11474 0.25634199 -0.121651
  endloop
 endfacet

 facet normal -0.75715393 -0.035706796 0.65225995
  outer loop
  vertex -0.0603939 0.50963598 -0.044699602
  vertex -0.11474 0.25634199 -0.121651
  vertex -0.051467702 0.26177001 -0.047906902
  endloop
 endfacet

 facet normal -0.5127539 0.11931197 0.85020477
  outer loop
  vertex -0.0142037 0.088964097 -0.00118289
  vertex 0.0056485198 0.249971 -0.0118047
  vertex -0.051467702 0.26177001 -0.047906902
  endloop
 endfacet

 facet normal -0.75932491 0.012170098 0.65059787
  outer loop
  vertex -0.11474 0.25634199 -0.121651
  vertex -0.0142037 0.088964097 -0.00118289
  vertex -0.051467702 0.26177001 -0.047906902
  endloop
 endfacet

 facet normal -0.53851634 -0.030289218 0.84207052
  outer loop
  vertex -0.051467702 0.26177001 -0.047906902
  vertex 0.0056485198 0.249971 -0.0118047
  vertex -0.0603939 0.50963598 -0.044699602
  endloop
 endfacet

 facet normal 0.06297902 -0.050538819 0.99673438
  outer loop
  vertex 0.0056485198 0.249971 -0.0118047
  vertex 0.029778199 0.463137 -0.0025208499
  vertex 0.00393641 0.76775402 0.0145574
  endloop
 endfacet

 facet normal -0.57700092 -0.043432195 0.81558794
  outer loop
  vertex -0.0603939 0.50963598 -0.044699602
  vertex 0.0056485198 0.249971 -0.0118047
  vertex 0.00393641 0.76775402 0.0145574
  endloop
 endfacet

 facet normal -0.36132389 -0.12216597 0.92440283
  outer loop
  vertex -0.0603939 0.50963598 -0.044699602
  vertex 0.00393641 0.76775402 0.0145574
  vertex -0.080547303 0.82881099 -0.0103958
  endloop
 endfacet

 facet normal 0.79443109 -0.38983005 -0.46573803
  outer loop
  vertex -0.0148637 -0.093664303 -0.0989573
  vertex 0.016113801 -0.103875 -0.0375713
  vertex -0.0121224 -0.120255 -0.072024301
  endloop
 endfacet

endsolidAssimpScene
