solid AssimpScene
 facet normal -0.5063768 -0.02654149 0.86190373
  outer loop
  vertex 0.0127047 -0.088711701 -0.0106819
  vertex -0.043095 -0.154126 -0.0454791
  vertex -0.00113557 -0.22127099 -0.0228952
  endloop
 endfacet

 facet normal -0.25616193 0.054455187 0.9650988
  outer loop
  vertex 0.024112999 -0.53331298 -0.0095102899
  vertex -0.0044857198 -0.50170898 -0.0188844
  vertex 0.017920099 -0.80451101 0.0041481499
  endloop
 endfacet

 facet normal -0.025028888 0.073980272 0.99694562
  outer loop
  vertex 0.017920099 -0.80451101 0.0041481499
  vertex -0.0044857198 -0.50170898 -0.0188844
  vertex -0.00638428 -0.65090799 -0.0078604296
  endloop
 endfacet

 facet normal 0.042621586 -0.0018256392 0.9990896
  outer loop
  vertex 0.029894801 -0.96582401 0.00334253
  vertex 0.017920099 -0.80451101 0.0041481499
  vertex -0.0281136 -0.98270899 0.0057863402
  endloop
 endfacet

 facet normal -0.78769511 -0.0012348001 0.61606407
  outer loop
  vertex -0.0498426 -0.42124599 -0.0546421
  vertex -0.043095 -0.154126 -0.0454791
  vertex -0.113511 -0.274039 -0.13575201
  endloop
 endfacet

 facet normal -0.60748196 -0.21825098 0.76376188
  outer loop
  vertex -0.043095 -0.154126 -0.0454791
  vertex -0.083571397 -0.140031 -0.073645599
  vertex -0.113511 -0.274039 -0.13575201
  endloop
 endfacet

 facet normal -0.49518093 -0.017287197 0.86861789
  outer loop
  vertex -0.043095 -0.154126 -0.0454791
  vertex -0.0498426 -0.42124599 -0.0546421
  vertex -0.00113557 -0.22127099 -0.0228952
  endloop
 endfacet

 facet normal -0.53942513 0.068871513 0.83921218
  outer loop
  vertex -0.0498426 -0.42124599 -0.0546421
  vertex -0.00638428 -0.65090799 -0.0078604296
  vertex -0.0044857198 -0.50170898 -0.0188844
  endloop
 endfacet

 facet normal -0.75400668 0.035294287 0.6559177
  outer loop
  vertex -0.113511 -0.274039 -0.13575201
  vertex -0.114702 -0.41512501 -0.12953
  vertex -0.0498426 -0.42124599 -0.0546421
  endloop
 endfacet

 facet normal -0.74745673 0.10507595 0.65594774
  outer loop
  vertex -0.0498426 -0.42124599 -0.0546421
  vertex -0.114702 -0.41512501 -0.12953
  vertex -0.0878653 -0.65107399 -0.061152998
  endloop
 endfacet

 facet normal -0.54009086 0.16511497 0.8252508
  outer loop
  vertex -0.00638428 -0.65090799 -0.0078604296
  vertex -0.0878653 -0.65107399 -0.061152998
  vertex -0.074671201 -0.82596803 -0.0175255
  endloop
 endfacet

 facet normal -0.27718502 0.053263005 0.95933908
  outer loop
  vertex -0.0407154 -0.98947603 0.0013634301
  vertex -0.074671201 -0.82596803 -0.0175255
  vertex -0.075001702 -0.97503901 -0.0093445396
  endloop
 endfacet

 facet normal -0.19034801 0.016312702 0.98158109
  outer loop
  vertex -0.00113557 -0.22127099 -0.0228952
  vertex -0.0044857198 -0.50170898 -0.0188844
  vertex 0.056674 -0.33057201 -0.0098683499
  endloop
 endfacet

 facet normal 0.15559103 0.046142712 0.98674315
  outer loop
  vertex 0.017920099 -0.80451101 0.0041481499
  vertex 0.053791098 -0.64341599 -0.00904126
  vertex 0.024112999 -0.53331298 -0.0095102899
  endloop
 endfacet

 facet normal -0.26642993 0.044490092 0.96282691
  outer loop
  vertex -0.0044857198 -0.50170898 -0.0188844
  vertex 0.024112999 -0.53331298 -0.0095102899
  vertex 0.056674 -0.33057201 -0.0098683499
  endloop
 endfacet

 facet normal 0.34823301 0.021169899 0.93716896
  outer loop
  vertex 0.029894801 -0.96582401 0.00334253
  vertex 0.051814899 -0.839194 -0.0076629701
  vertex 0.017920099 -0.80451101 0.0041481499
  endloop
 endfacet

 facet normal 0.33205596 0.0032887398 0.94325393
  outer loop
  vertex 0.051814899 -0.839194 -0.0076629701
  vertex 0.053791098 -0.64341599 -0.00904126
  vertex 0.017920099 -0.80451101 0.0041481499
  endloop
 endfacet

 facet normal -0.0057974379 0.0026971388 0.99997956
  outer loop
  vertex 0.024112999 -0.53331298 -0.0095102899
  vertex 0.053791098 -0.64341599 -0.00904126
  vertex 0.056674 -0.33057201 -0.0098683499
  endloop
 endfacet

 facet normal -0.023106992 -0.00083778478 0.99973267
  outer loop
  vertex 0.055901699 -0.0588728 -0.0096585201
  vertex 0.0127047 -0.088711701 -0.0106819
  vertex 0.056674 -0.33057201 -0.0098683499
  endloop
 endfacet

 facet normal -0.31605092 -0.054270688 0.94718879
  outer loop
  vertex -0.00113557 -0.22127099 -0.0228952
  vertex 0.056674 -0.33057201 -0.0098683499
  vertex 0.0127047 -0.088711701 -0.0106819
  endloop
 endfacet

 facet normal -0.59843689 0.018604398 0.80095392
  outer loop
  vertex -0.00113557 -0.22127099 -0.0228952
  vertex -0.0498426 -0.42124599 -0.0546421
  vertex -0.0044857198 -0.50170898 -0.0188844
  endloop
 endfacet

 facet normal -0.54624397 0.066715993 0.83496493
  outer loop
  vertex -0.0498426 -0.42124599 -0.0546421
  vertex -0.0878653 -0.65107399 -0.061152998
  vertex -0.00638428 -0.65090799 -0.0078604296
  endloop
 endfacet

 facet normal -0.16317098 0.051209297 0.98526788
  outer loop
  vertex -0.00638428 -0.65090799 -0.0078604296
  vertex -0.0281136 -0.98270899 0.0057863402
  vertex 0.017920099 -0.80451101 0.0041481499
  endloop
 endfacet

 facet normal -0.28405899 0.057965703 0.95705307
  outer loop
  vertex -0.00638428 -0.65090799 -0.0078604296
  vertex -0.074671201 -0.82596803 -0.0175255
  vertex -0.0281136 -0.98270899 0.0057863402
  endloop
 endfacet

 facet normal -0.34807909 0.035933707 0.93677622
  outer loop
  vertex -0.0281136 -0.98270899 0.0057863402
  vertex -0.074671201 -0.82596803 -0.0175255
  vertex -0.0407154 -0.98947603 0.0013634301
  endloop
 endfacet

 facet normal 0.0019787003 -0.037139308 0.99930805
  outer loop
  vertex 0.055901699 -0.0588728 -0.0096585201
  vertex -0.055858199 -0.066586003 -0.0097238896
  vertex 0.0127047 -0.088711701 -0.0106819
  endloop
 endfacet

 facet normal -0.61395872 -0.37353086 0.69536269
  outer loop
  vertex -0.043095 -0.154126 -0.0454791
  vertex -0.055858199 -0.066586003 -0.0097238896
  vertex -0.083571397 -0.140031 -0.073645599
  endloop
 endfacet

 facet normal -0.113011 -0.38977402 0.91395009
  outer loop
  vertex -0.043095 -0.154126 -0.0454791
  vertex 0.0127047 -0.088711701 -0.0106819
  vertex -0.055858199 -0.066586003 -0.0097238896
  endloop
 endfacet

 facet normal 0.00071567873 0.00043596479 0.99999958
  outer loop
  vertex 0.055873498 0.065948598 -0.0097129103
  vertex -0.055691101 0.066171497 -0.0096331704
  vertex 0.055901699 -0.0588728 -0.0096585201
  endloop
 endfacet

 facet normal -0.00053778774 -0.00068266073 0.99999958
  outer loop
  vertex -0.055691101 0.066171497 -0.0096331704
  vertex -0.055858199 -0.066586003 -0.0097238896
  vertex 0.055901699 -0.0588728 -0.0096585201
  endloop
 endfacet

 facet normal 0.18162501 0.60864407 0.77237606
  outer loop
  vertex 0.083117001 0.138354 -0.073176198
  vertex -0.00174063 0.081834897 -0.0086835297
  vertex 0.055873498 0.065948598 -0.0097129103
  endloop
 endfacet

 facet normal 0.00058845669 -0.062536165 0.99804246
  outer loop
  vertex -0.055691101 0.066171497 -0.0096331704
  vertex 0.055873498 0.065948598 -0.0097129103
  vertex -0.00174063 0.081834897 -0.0086835297
  endloop
 endfacet

 facet normal 0.56830138 0.081085347 0.81881547
  outer loop
  vertex -0.00174063 0.081834897 -0.0086835297
  vertex 0.083117001 0.138354 -0.073176198
  vertex 0.037595902 0.203587 -0.0480421
  endloop
 endfacet

 facet normal 0.25785592 -0.054471083 0.96464664
  outer loop
  vertex -0.024112999 0.53331298 -0.0095102899
  vertex 0.0043871999 0.50360799 -0.018805901
  vertex -0.0179199 0.80451202 0.0041481699
  endloop
 endfacet

 facet normal 0.022465304 -0.074387714 0.99697626
  outer loop
  vertex -0.0179199 0.80451202 0.0041481699
  vertex 0.0043871999 0.50360799 -0.018805901
  vertex 0.0063843001 0.65090698 -0.0078604603
  endloop
 endfacet

 facet normal -0.04259399 0.0018212496 0.99909073
  outer loop
  vertex -0.029892599 0.96582401 0.0033436799
  vertex -0.0179199 0.80451202 0.0041481699
  vertex 0.0281156 0.982719 0.00578593
  endloop
 endfacet

 facet normal 0.66462207 0.18485004 0.72395307
  outer loop
  vertex 0.037595902 0.203587 -0.0480421
  vertex 0.083117001 0.138354 -0.073176198
  vertex 0.113541 0.27417201 -0.135785
  endloop
 endfacet

 facet normal 0.53579789 -0.06979119 0.84145695
  outer loop
  vertex 0.050021 0.44360101 -0.0528403
  vertex 0.0063843001 0.65090698 -0.0078604603
  vertex 0.0043871999 0.50360799 -0.018805901
  endloop
 endfacet

 facet normal 0.76642615 -0.026846405 0.64177114
  outer loop
  vertex 0.037595902 0.203587 -0.0480421
  vertex 0.113541 0.27417201 -0.135785
  vertex 0.050021 0.44360101 -0.0528403
  endloop
 endfacet

 facet normal 0.75747269 -0.035171084 0.65191871
  outer loop
  vertex 0.113541 0.27417201 -0.135785
  vertex 0.114702 0.415126 -0.12953
  vertex 0.050021 0.44360101 -0.0528403
  endloop
 endfacet

 facet normal 0.73973608 -0.10832301 0.66412109
  outer loop
  vertex 0.050021 0.44360101 -0.0528403
  vertex 0.114702 0.415126 -0.12953
  vertex 0.087865002 0.65107697 -0.061152201
  endloop
 endfacet

 facet normal 0.54009306 -0.165112 0.82525003
  outer loop
  vertex 0.0063843001 0.65090698 -0.0078604603
  vertex 0.087865002 0.65107697 -0.061152201
  vertex 0.074670598 0.825975 -0.017524401
  endloop
 endfacet

 facet normal 0.27719209 -0.053258918 0.95933729
  outer loop
  vertex 0.040877901 0.98949498 0.00131778
  vertex 0.074670598 0.825975 -0.017524401
  vertex 0.075001702 0.97503901 -0.0093445396
  endloop
 endfacet

 facet normal -0.15559006 -0.046142515 0.98674333
  outer loop
  vertex -0.0179199 0.80451202 0.0041481699
  vertex -0.053791098 0.64341599 -0.00904126
  vertex -0.024112999 0.53331298 -0.0095102899
  endloop
 endfacet

 facet normal -0.34823301 -0.021172399 0.93716896
  outer loop
  vertex -0.029892599 0.96582401 0.0033436799
  vertex -0.051814899 0.839194 -0.0076629701
  vertex -0.0179199 0.80451202 0.0041481699
  endloop
 endfacet

 facet normal -0.33205387 -0.0032887491 0.94325471
  outer loop
  vertex -0.051814899 0.839194 -0.0076629701
  vertex -0.053791098 0.64341599 -0.00904126
  vertex -0.0179199 0.80451202 0.0041481699
  endloop
 endfacet

 facet normal 0.0041066287 -0.0031529285 0.99998653
  outer loop
  vertex -0.024112999 0.53331298 -0.0095102899
  vertex -0.053791098 0.64341599 -0.00904126
  vertex -0.057461899 0.180075 -0.0104871
  endloop
 endfacet

 facet normal 0.28222099 -0.029295899 0.958902
  outer loop
  vertex -0.024112999 0.53331298 -0.0095102899
  vertex -0.057461899 0.180075 -0.0104871
  vertex 0.0043871999 0.50360799 -0.018805901
  endloop
 endfacet

 facet normal 0.20902002 -0.014816201 0.97779912
  outer loop
  vertex -0.057461899 0.180075 -0.0104871
  vertex -0.00046521201 0.233604 -0.021859899
  vertex 0.0043871999 0.50360799 -0.018805901
  endloop
 endfacet

 facet normal -0.019685507 0.0071892333 0.99978042
  outer loop
  vertex -0.057461899 0.180075 -0.0104871
  vertex -0.055691101 0.066171497 -0.0096331704
  vertex -0.00174063 0.081834897 -0.0086835297
  endloop
 endfacet

 facet normal 0.59946829 0.06422773 0.79781735
  outer loop
  vertex -0.00174063 0.081834897 -0.0086835297
  vertex 0.037595902 0.203587 -0.0480421
  vertex -0.00046521201 0.233604 -0.021859899
  endloop
 endfacet

 facet normal 0.11767801 0.084910706 0.98941505
  outer loop
  vertex -0.00046521201 0.233604 -0.021859899
  vertex -0.057461899 0.180075 -0.0104871
  vertex -0.00174063 0.081834897 -0.0086835297
  endloop
 endfacet

 facet normal 0.56003362 -0.012431293 0.82837653
  outer loop
  vertex -0.00046521201 0.233604 -0.021859899
  vertex 0.037595902 0.203587 -0.0480421
  vertex 0.050021 0.44360101 -0.0528403
  endloop
 endfacet

 facet normal 0.5810079 -0.019644894 0.81366074
  outer loop
  vertex -0.00046521201 0.233604 -0.021859899
  vertex 0.050021 0.44360101 -0.0528403
  vertex 0.0043871999 0.50360799 -0.018805901
  endloop
 endfacet

 facet normal 0.54626095 -0.066187195 0.83499593
  outer loop
  vertex 0.050021 0.44360101 -0.0528403
  vertex 0.087865002 0.65107697 -0.061152201
  vertex 0.0063843001 0.65090698 -0.0078604603
  endloop
 endfacet

 facet normal 0.16317797 -0.051207993 0.98526686
  outer loop
  vertex 0.0063843001 0.65090698 -0.0078604603
  vertex 0.0281156 0.982719 0.00578593
  vertex -0.0179199 0.80451202 0.0041481699
  endloop
 endfacet

 facet normal 0.28404692 -0.057963878 0.9570567
  outer loop
  vertex 0.0063843001 0.65090698 -0.0078604603
  vertex 0.074670598 0.825975 -0.017524401
  vertex 0.0281156 0.982719 0.00578593
  endloop
 endfacet

 facet normal 0.3472949 -0.036204189 0.93705678
  outer loop
  vertex 0.0281156 0.982719 0.00578593
  vertex 0.074670598 0.825975 -0.017524401
  vertex 0.040877901 0.98949498 0.00131778
  endloop
 endfacet

 facet normal -0.88460797 0.452456 -0.112926
  outer loop
  vertex -0.0135263 0.104834 -0.0657828
  vertex -0.0080735199 0.122668 -0.037042499
  vertex 0.0056365598 0.123583 -0.14077701
  endloop
 endfacet

 facet normal 0.62906224 0.77213335 0.089947835
  outer loop
  vertex 0.0056365598 0.123583 -0.14077701
  vertex -0.0080735199 0.122668 -0.037042499
  vertex 0.0160878 0.104192 -0.047417801
  endloop
 endfacet

 facet normal -0.49295619 0.74590433 0.44790718
  outer loop
  vertex -0.0089377305 -0.12151 -0.038230099
  vertex 0.016696399 -0.104368 -0.038564101
  vertex -0.0113946 -0.103689 -0.070610501
  endloop
 endfacet

 facet normal -0.12664895 0.9831475 0.13183694
  outer loop
  vertex -0.0044757202 -0.093169399 -0.142415
  vertex -0.0113946 -0.103689 -0.070610501
  vertex 0.016696399 -0.104368 -0.038564101
  endloop
 endfacet

 facet normal 0.67069596 0.73953992 -0.056987997
  outer loop
  vertex -0.0044757202 -0.093169399 -0.142415
  vertex 0.016696399 -0.104368 -0.038564101
  vertex 0.021243799 -0.116969 -0.14857
  endloop
 endfacet

 facet normal 0.55309004 -0.82481611 0.11734501
  outer loop
  vertex 0.021243799 -0.116969 -0.14857
  vertex 0.016696399 -0.104368 -0.038564101
  vertex -0.0089377305 -0.12151 -0.038230099
  endloop
 endfacet

 facet normal -0.80014497 -0.54905802 -0.24146098
  outer loop
  vertex 0.021243799 -0.116969 -0.14857
  vertex -0.0089377305 -0.12151 -0.038230099
  vertex -0.0113946 -0.103689 -0.070610501
  endloop
 endfacet

 facet normal -0.89026415 0.33820605 0.30503505
  outer loop
  vertex -0.0235091 -0.00171967 -0.126579
  vertex -0.00415282 -0.0259271 -0.043246001
  vertex -0.0022456499 -0.015771 -0.048940402
  endloop
 endfacet

 facet normal -0.76682234 0.41739416 0.48761219
  outer loop
  vertex -0.0022456499 -0.015771 -0.048940402
  vertex -0.00415282 -0.0259271 -0.043246001
  vertex 0.0159621 -0.027847201 -0.0099695204
  endloop
 endfacet

 facet normal -0.91302627 -0.10260803 0.39478412
  outer loop
  vertex -0.0022456499 -0.015771 -0.048940402
  vertex 0.0159621 -0.027847201 -0.0099695204
  vertex 0.0025450301 0.0109462 -0.030916801
  endloop
 endfacet

 facet normal -0.90225816 -0.32073307 0.28820205
  outer loop
  vertex -0.0082591502 0.0259078 -0.048090499
  vertex -0.0235091 -0.00171967 -0.126579
  vertex 0.0025450301 0.0109462 -0.030916801
  endloop
 endfacet

 facet normal 0.7146312 0.68402421 0.14633204
  outer loop
  vertex 0.0025450301 0.0109462 -0.030916801
  vertex 0.0211406 0.0149358 -0.14038
  vertex -0.0082591502 0.0259078 -0.048090499
  endloop
 endfacet

 facet normal 0.90024275 0.4018459 0.16757895
  outer loop
  vertex 0.0211406 0.0149358 -0.14038
  vertex 0.0025450301 0.0109462 -0.030916801
  vertex 0.0159621 -0.027847201 -0.0099695204
  endloop
 endfacet

 facet normal -0.96468651 -0.0046852622 0.26335916
  outer loop
  vertex -0.0022456499 -0.015771 -0.048940402
  vertex 0.0025450301 0.0109462 -0.030916801
  vertex -0.0235091 -0.00171967 -0.126579
  endloop
 endfacet

 facet normal 0.50791299 0.058802899 0.85939902
  outer loop
  vertex 0.019238001 0.127822 -0.027618499
  vertex 0.0258133 0.23483799 -0.038826901
  vertex -0.0049193599 0.21935999 -0.019604599
  endloop
 endfacet

 facet normal 0.71585792 0.029084198 0.69764
  outer loop
  vertex 0.019238001 0.127822 -0.027618499
  vertex 0.089897297 0.239197 -0.104766
  vertex 0.0258133 0.23483799 -0.038826901
  endloop
 endfacet

 facet normal -0.024554403 0.0038039607 0.99969119
  outer loop
  vertex -0.020665299 0.127101 -0.0090047102
  vertex -0.055691101 0.066171497 -0.0096331704
  vertex -0.00847378 0.0753932 -0.00850851
  endloop
 endfacet

 facet normal 0.97229934 0.22878809 -0.047853518
  outer loop
  vertex -0.00847378 0.0753932 -0.00850851
  vertex -0.0255653 0.119737 -0.14377201
  vertex -0.020665299 0.127101 -0.0090047102
  endloop
 endfacet

 facet normal 0.6830098 -0.043026287 0.72914082
  outer loop
  vertex 0.030973701 0.44140601 -0.036934901
  vertex 0.064696297 0.51325202 -0.064284399
  vertex 0.0130651 0.69834203 -0.0049975598
  endloop
 endfacet

 facet normal 0.42928585 -0.10049097 0.89756072
  outer loop
  vertex 0.076233499 0.89877898 -0.0127689
  vertex 0.0130651 0.69834203 -0.0049975598
  vertex 0.082046099 0.76524001 -0.0305
  endloop
 endfacet

 facet normal 0.71785074 -0.036684286 0.69522977
  outer loop
  vertex 0.0258133 0.23483799 -0.038826901
  vertex 0.089897297 0.239197 -0.104766
  vertex 0.064696297 0.51325202 -0.064284399
  endloop
 endfacet

 facet normal 0.65926814 -0.023353204 0.75154519
  outer loop
  vertex 0.0258133 0.23483799 -0.038826901
  vertex 0.064696297 0.51325202 -0.064284399
  vertex 0.030973701 0.44140601 -0.036934901
  endloop
 endfacet

 facet normal 0.79702342 -0.015889509 0.60373938
  outer loop
  vertex 0.064696297 0.51325202 -0.064284399
  vertex 0.089897297 0.239197 -0.104766
  vertex 0.118975 0.372814 -0.139636
  endloop
 endfacet

 facet normal 0.46678996 -0.14901198 0.87172389
  outer loop
  vertex 0.064696297 0.51325202 -0.064284399
  vertex 0.082046099 0.76524001 -0.0305
  vertex 0.0130651 0.69834203 -0.0049975598
  endloop
 endfacet

 facet normal 0.28314003 -0.038458403 0.95830715
  outer loop
  vertex 0.075001702 0.97503901 -0.0093445396
  vertex 0.040877901 0.98949498 0.00131778
  vertex 0.076233499 0.89877898 -0.0127689
  endloop
 endfacet

 facet normal 0.10916699 -0.031978298 0.99350893
  outer loop
  vertex 0.0130651 0.69834203 -0.0049975598
  vertex 0.040877901 0.98949498 0.00131778
  vertex -0.022703899 0.85297501 0.0039099501
  endloop
 endfacet

 facet normal 0.53297985 -0.0074921274 0.84609473
  outer loop
  vertex 0.0258133 0.23483799 -0.038826901
  vertex -0.0144162 0.525621 -0.0109103
  vertex -0.0049193599 0.21935999 -0.019604599
  endloop
 endfacet

 facet normal 0.16989201 -0.022700101 0.98520118
  outer loop
  vertex -0.0049193599 0.21935999 -0.019604599
  vertex -0.0144162 0.525621 -0.0109103
  vertex -0.058405001 0.254076 -0.0095814001
  endloop
 endfacet

 facet normal -0.36183801 -0.018373 0.93205994
  outer loop
  vertex -0.022703899 0.85297501 0.0039099501
  vertex -0.029892599 0.96582401 0.0033436799
  vertex -0.051814899 0.839194 -0.0076629701
  endloop
 endfacet

 facet normal -0.41699716 -0.0068092323 0.90888232
  outer loop
  vertex -0.029892599 0.96582401 0.0033436799
  vertex -0.0533484 0.95098299 -0.0075290399
  vertex -0.051814899 0.839194 -0.0076629701
  endloop
 endfacet

 facet normal -0.0079525802 -0.0454261 0.99893606
  outer loop
  vertex -0.022703899 0.85297501 0.0039099501
  vertex -0.056363501 0.55811101 -0.0097668003
  vertex -0.0144162 0.525621 -0.0109103
  endloop
 endfacet

 facet normal 0.027578585 0.0004243858 0.99961954
  outer loop
  vertex -0.0144162 0.525621 -0.0109103
  vertex -0.056363501 0.55811101 -0.0097668003
  vertex -0.058405001 0.254076 -0.0095814001
  endloop
 endfacet

 facet normal -0.29217511 0.15823007 0.94318444
  outer loop
  vertex -0.0049193599 0.21935999 -0.019604599
  vertex -0.055691101 0.066171497 -0.0096331704
  vertex -0.020665299 0.127101 -0.0090047102
  endloop
 endfacet

 facet normal 0.36480188 -0.089768268 0.92674768
  outer loop
  vertex -0.0144162 0.525621 -0.0109103
  vertex 0.030973701 0.44140601 -0.036934901
  vertex 0.0130651 0.69834203 -0.0049975598
  endloop
 endfacet

 facet normal 0.46938393 -0.019811595 0.88277185
  outer loop
  vertex 0.0258133 0.23483799 -0.038826901
  vertex 0.030973701 0.44140601 -0.036934901
  vertex -0.0144162 0.525621 -0.0109103
  endloop
 endfacet

 facet normal 0.059697513 -0.043637607 0.99726218
  outer loop
  vertex -0.0144162 0.525621 -0.0109103
  vertex 0.0130651 0.69834203 -0.0049975598
  vertex -0.022703899 0.85297501 0.0039099501
  endloop
 endfacet

 facet normal 0.26513988 -0.046218183 0.96310163
  outer loop
  vertex 0.040877901 0.98949498 0.00131778
  vertex 0.0130651 0.69834203 -0.0049975598
  vertex 0.076233499 0.89877898 -0.0127689
  endloop
 endfacet

 facet normal -0.67924088 0.73376083 0.015065196
  outer loop
  vertex 0.021243799 -0.116969 -0.14857
  vertex -0.00097560202 -0.14012501 -0.022527199
  vertex 0.023151901 -0.118011 -0.0118034
  endloop
 endfacet

 facet normal -0.95669121 -0.29022205 -0.022646805
  outer loop
  vertex 0.023151901 -0.118011 -0.0118034
  vertex 0.0141388 -0.088261597 -0.0122976
  vertex 0.0173898 -0.089332901 -0.135902
  endloop
 endfacet

 facet normal -0.98952216 -0.14382003 0.012709603
  outer loop
  vertex 0.0173898 -0.089332901 -0.135902
  vertex 0.021243799 -0.116969 -0.14857
  vertex 0.023151901 -0.118011 -0.0118034
  endloop
 endfacet

 facet normal 0.49424404 0.86647499 0.070313707
  outer loop
  vertex -0.019763 -0.118895 -0.152086
  vertex -0.00097560202 -0.14012501 -0.022527199
  vertex 0.0057028001 -0.134397 -0.140058
  endloop
 endfacet

 facet normal 0.79766315 -0.59394312 0.10471402
  outer loop
  vertex -0.019763 -0.118895 -0.152086
  vertex -0.0079709701 -0.085485503 -0.0524114
  vertex -0.0251323 -0.102274 -0.0169085
  endloop
 endfacet

 facet normal -0.13364001 -0.99101698 0.0050749001
  outer loop
  vertex 0.0173898 -0.089332901 -0.135902
  vertex 0.0141388 -0.088261597 -0.0122976
  vertex -0.0079709701 -0.085485503 -0.0524114
  endloop
 endfacet

 facet normal -0.74880224 0.66271418 -0.010249902
  outer loop
  vertex -0.00097560202 -0.14012501 -0.022527199
  vertex 0.021243799 -0.116969 -0.14857
  vertex 0.0057028001 -0.134397 -0.140058
  endloop
 endfacet

 facet normal -0.036806412 -0.03737101 0.99862337
  outer loop
  vertex 0.0141388 -0.088261597 -0.0122976
  vertex 0.055901699 -0.0588728 -0.0096585201
  vertex 0.0159621 -0.027847201 -0.0099695204
  endloop
 endfacet

 facet normal -0.41004002 -0.50582206 0.75895405
  outer loop
  vertex -0.083571397 -0.140031 -0.073645599
  vertex -0.0251323 -0.102274 -0.0169085
  vertex -0.055858199 -0.066586003 -0.0097238896
  endloop
 endfacet

 facet normal -0.93492311 0.33774602 -0.10884201
  outer loop
  vertex 0.025261 0.104341 -0.152219
  vertex 0.0049151201 0.0846885 -0.0384374
  vertex 0.019238001 0.127822 -0.027618499
  endloop
 endfacet

 facet normal -0.90199709 0.20408504 0.38046107
  outer loop
  vertex 0.0049151201 0.0846885 -0.0384374
  vertex 0.0153005 0.076162703 -0.0092424303
  vertex 0.019238001 0.127822 -0.027618499
  endloop
 endfacet

 facet normal 0.85559738 -0.51739818 0.015882006
  outer loop
  vertex -0.0082591502 0.0259078 -0.048090499
  vertex -0.025219001 -0.00095965998 -0.0097032897
  vertex -0.0235091 -0.00171967 -0.126579
  endloop
 endfacet

 facet normal -0.27517691 -0.96102571 0.026592391
  outer loop
  vertex -0.0082591502 0.0259078 -0.048090499
  vertex 0.0211406 0.0149358 -0.14038
  vertex 0.0140391 0.020564299 -0.0104583
  endloop
 endfacet

 facet normal 0.76894939 0.63927037 0.0070928438
  outer loop
  vertex -0.025219001 -0.00095965998 -0.0097032897
  vertex -0.00415282 -0.0259271 -0.043246001
  vertex -0.0235091 -0.00171967 -0.126579
  endloop
 endfacet

 facet normal 0.16369693 0.61469972 0.77158767
  outer loop
  vertex 0.0153005 0.076162703 -0.0092424303
  vertex 0.055873498 0.065948598 -0.0097129103
  vertex 0.083117001 0.138354 -0.073176198
  endloop
 endfacet

 facet normal 0.55948412 0.21328005 0.8009302
  outer loop
  vertex 0.083117001 0.138354 -0.073176198
  vertex 0.089897297 0.239197 -0.104766
  vertex 0.0153005 0.076162703 -0.0092424303
  endloop
 endfacet

 facet normal 0.49954107 0.25628302 0.8275131
  outer loop
  vertex 0.019238001 0.127822 -0.027618499
  vertex 0.0153005 0.076162703 -0.0092424303
  vertex 0.089897297 0.239197 -0.104766
  endloop
 endfacet

 facet normal -0.007449341 0.00043411105 0.99997216
  outer loop
  vertex 0.055901699 -0.0588728 -0.0096585201
  vertex 0.055873498 0.065948598 -0.0097129103
  vertex 0.0159621 -0.027847201 -0.0099695204
  endloop
 endfacet

 facet normal -0.027568609 0.0089961831 0.99957943
  outer loop
  vertex 0.0159621 -0.027847201 -0.0099695204
  vertex 0.055873498 0.065948598 -0.0097129103
  vertex 0.0140391 0.020564299 -0.0104583
  endloop
 endfacet

 facet normal 0.0060546082 -0.021999592 0.99973965
  outer loop
  vertex 0.055873498 0.065948598 -0.0097129103
  vertex 0.0153005 0.076162703 -0.0092424303
  vertex 0.0140391 0.020564299 -0.0104583
  endloop
 endfacet

 facet normal 0.14930601 -0.070016511 0.98630911
  outer loop
  vertex -0.0251323 -0.102274 -0.0169085
  vertex -0.025219001 -0.00095965998 -0.0097032897
  vertex -0.055858199 -0.066586003 -0.0097238896
  endloop
 endfacet

 facet normal 0.00079372438 -0.00068433734 0.99999946
  outer loop
  vertex -0.055858199 -0.066586003 -0.0097238896
  vertex -0.025219001 -0.00095965998 -0.0097032897
  vertex -0.055691101 0.066171497 -0.0096331704
  endloop
 endfacet

 facet normal -0.02168539 -0.010887695 0.99970555
  outer loop
  vertex -0.055691101 0.066171497 -0.0096331704
  vertex -0.025219001 -0.00095965998 -0.0097032897
  vertex -0.00847378 0.0753932 -0.00850851
  endloop
 endfacet

 facet normal -0.99779701 -0.0401677 -0.052799098
  outer loop
  vertex 0.0211406 0.0149358 -0.14038
  vertex 0.0159621 -0.027847201 -0.0099695204
  vertex 0.0140391 0.020564299 -0.0104583
  endloop
 endfacet

 facet normal 0.042740919 -0.99768138 0.052962318
  outer loop
  vertex -0.020665299 0.127101 -0.0090047102
  vertex -0.0255653 0.119737 -0.14377201
  vertex 0.019238001 0.127822 -0.027618499
  endloop
 endfacet

 facet normal 0.84781563 0.52624381 0.06539157
  outer loop
  vertex -0.0255653 0.119737 -0.14377201
  vertex -0.00847378 0.0753932 -0.00850851
  vertex -0.00674691 0.079618901 -0.064903699
  endloop
 endfacet

 facet normal -0.50604421 0.8605454 0.058144625
  outer loop
  vertex -0.00674691 0.079618901 -0.064903699
  vertex 0.0049151201 0.0846885 -0.0384374
  vertex 0.025261 0.104341 -0.152219
  endloop
 endfacet

 facet normal -0.98765099 0.043858197 0.15040599
  outer loop
  vertex -0.0042254101 -0.205437 -0.024822401
  vertex -0.00097560202 -0.14012501 -0.022527199
  vertex -0.019763 -0.118895 -0.152086
  endloop
 endfacet

 facet normal 0.9801892 0.19752105 0.014646603
  outer loop
  vertex -0.0042254101 -0.205437 -0.024822401
  vertex -0.019763 -0.118895 -0.152086
  vertex -0.0251323 -0.102274 -0.0169085
  endloop
 endfacet

 facet normal 0.52657491 0.0036742091 -0.85012084
  outer loop
  vertex -0.0042254101 -0.205437 -0.024822401
  vertex -0.026014199 -0.27974701 -0.038639799
  vertex -0.00097560202 -0.14012501 -0.022527199
  endloop
 endfacet

 facet normal -0.46267012 -0.019311804 0.88632011
  outer loop
  vertex -0.00097560202 -0.14012501 -0.022527199
  vertex -0.026014199 -0.27974701 -0.038639799
  vertex 0.0238769 -0.38343301 -0.0148552
  endloop
 endfacet

 facet normal -0.39720097 -0.011636299 0.91765797
  outer loop
  vertex -0.00097560202 -0.14012501 -0.022527199
  vertex 0.0238769 -0.38343301 -0.0148552
  vertex 0.023151901 -0.118011 -0.0118034
  endloop
 endfacet

 facet normal -0.72683382 -0.067251287 0.68351287
  outer loop
  vertex -0.026014199 -0.27974701 -0.038639799
  vertex -0.053734299 -0.160254 -0.056359898
  vertex -0.108654 -0.28581199 -0.127115
  endloop
 endfacet

 facet normal -0.59885812 -0.22712906 0.76797217
  outer loop
  vertex -0.053734299 -0.160254 -0.056359898
  vertex -0.0251323 -0.102274 -0.0169085
  vertex -0.083571397 -0.140031 -0.073645599
  endloop
 endfacet

 facet normal -0.74746495 -0.046483498 0.66267294
  outer loop
  vertex -0.053734299 -0.160254 -0.056359898
  vertex -0.105771 -0.219694 -0.119224
  vertex -0.108654 -0.28581199 -0.127115
  endloop
 endfacet

 facet normal -0.69495314 0.096065104 0.71260905
  outer loop
  vertex -0.070870601 -0.46520099 -0.074590601
  vertex -0.104818 -0.54540098 -0.0968858
  vertex -0.053957202 -0.70102102 -0.026306
  endloop
 endfacet

 facet normal 0.062420323 -0.04591262 0.99699336
  outer loop
  vertex -0.0066539599 -0.85549301 0.0054009301
  vertex -0.0407154 -0.98947603 0.0013634301
  vertex 0.0227405 -0.85053003 0.0037891499
  endloop
 endfacet

 facet normal -0.35238305 0.10339902 0.93012625
  outer loop
  vertex -0.053957202 -0.70102102 -0.026306
  vertex -0.080827698 -0.78035098 -0.0276672
  vertex -0.076233998 -0.89860803 -0.0127806
  endloop
 endfacet

 facet normal -0.2830759 0.038518485 0.95832372
  outer loop
  vertex -0.076233998 -0.89860803 -0.0127806
  vertex -0.075001702 -0.97503901 -0.0093445396
  vertex -0.0407154 -0.98947603 0.0013634301
  endloop
 endfacet

 facet normal 0.36008981 0.01873149 0.93272954
  outer loop
  vertex 0.029894801 -0.96582401 0.00334253
  vertex 0.051814899 -0.839194 -0.0076629701
  vertex 0.0227405 -0.85053003 0.0037891499
  endloop
 endfacet

 facet normal 0.41581494 0.007059589 0.90942186
  outer loop
  vertex 0.051814899 -0.839194 -0.0076629701
  vertex 0.029894801 -0.96582401 0.00334253
  vertex 0.053552002 -0.95091802 -0.00758994
  endloop
 endfacet

 facet normal 0.062883869 0.045182377 0.99699759
  outer loop
  vertex 0.0227405 -0.85053003 0.0037891499
  vertex 0.058001298 -0.596443 -0.0099497102
  vertex 0.0121008 -0.59148502 -0.0072793099
  endloop
 endfacet

 facet normal 0.06158337 0.032839186 0.99756151
  outer loop
  vertex 0.0121008 -0.59148502 -0.0072793099
  vertex 0.058001298 -0.596443 -0.0099497102
  vertex 0.0238769 -0.38343301 -0.0148552
  endloop
 endfacet

 facet normal -0.061604623 -0.0020843907 0.99809843
  outer loop
  vertex 0.0141388 -0.088261597 -0.0122976
  vertex 0.023151901 -0.118011 -0.0118034
  vertex 0.055901699 -0.0588728 -0.0096585201
  endloop
 endfacet

 facet normal -0.53689986 0.00055720983 0.84364575
  outer loop
  vertex -0.053734299 -0.160254 -0.056359898
  vertex -0.026014199 -0.27974701 -0.038639799
  vertex -0.0042254101 -0.205437 -0.024822401
  endloop
 endfacet

 facet normal -0.643664 -0.18736599 0.74201798
  outer loop
  vertex -0.0251323 -0.102274 -0.0169085
  vertex -0.053734299 -0.160254 -0.056359898
  vertex -0.0042254101 -0.205437 -0.024822401
  endloop
 endfacet

 facet normal -0.73158926 0.04508302 0.68025327
  outer loop
  vertex -0.026014199 -0.27974701 -0.038639799
  vertex -0.108654 -0.28581199 -0.127115
  vertex -0.070870601 -0.46520099 -0.074590601
  endloop
 endfacet

 facet normal -0.68748003 0.025594203 0.72575212
  outer loop
  vertex -0.026014199 -0.27974701 -0.038639799
  vertex -0.070870601 -0.46520099 -0.074590601
  vertex -0.0228076 -0.52592301 -0.0269207
  endloop
 endfacet

 facet normal -0.40726724 0.056246035 0.9115755
  outer loop
  vertex 0.0238769 -0.38343301 -0.0148552
  vertex -0.0228076 -0.52592301 -0.0269207
  vertex 0.0121008 -0.59148502 -0.0072793099
  endloop
 endfacet

 facet normal -0.36169112 0.039630212 0.93145525
  outer loop
  vertex -0.026014199 -0.27974701 -0.038639799
  vertex -0.0228076 -0.52592301 -0.0269207
  vertex 0.0238769 -0.38343301 -0.0148552
  endloop
 endfacet

 facet normal 0.04719089 0.044575989 0.99789077
  outer loop
  vertex 0.0121008 -0.59148502 -0.0072793099
  vertex -0.0066539599 -0.85549301 0.0054009301
  vertex 0.0227405 -0.85053003 0.0037891499
  endloop
 endfacet

 facet normal -0.62356281 0.11364597 0.77346879
  outer loop
  vertex -0.0228076 -0.52592301 -0.0269207
  vertex -0.070870601 -0.46520099 -0.074590601
  vertex -0.053957202 -0.70102102 -0.026306
  endloop
 endfacet

 facet normal -0.38373885 0.07149867 0.92066956
  outer loop
  vertex -0.0228076 -0.52592301 -0.0269207
  vertex -0.053957202 -0.70102102 -0.026306
  vertex 0.0121008 -0.59148502 -0.0072793099
  endloop
 endfacet

 facet normal -0.44009089 0.11061697 0.89111376
  outer loop
  vertex -0.053957202 -0.70102102 -0.026306
  vertex -0.076233998 -0.89860803 -0.0127806
  vertex 0.0121008 -0.59148502 -0.0072793099
  endloop
 endfacet

 facet normal -0.29062107 0.066490814 0.95452517
  outer loop
  vertex 0.0121008 -0.59148502 -0.0072793099
  vertex -0.076233998 -0.89860803 -0.0127806
  vertex -0.0066539599 -0.85549301 0.0054009301
  endloop
 endfacet

 facet normal -0.27651289 0.04136328 0.96011966
  outer loop
  vertex -0.0407154 -0.98947603 0.0013634301
  vertex -0.0066539599 -0.85549301 0.0054009301
  vertex -0.076233998 -0.89860803 -0.0127806
  endloop
 endfacet

 facet normal 0.94013512 -0.21038002 0.26811603
  outer loop
  vertex -0.00847378 0.0753932 -0.00850851
  vertex -0.025219001 -0.00095965998 -0.0097032897
  vertex -0.0082591502 0.0259078 -0.048090499
  endloop
 endfacet

 facet normal 0.71739811 0.69373804 0.063776508
  outer loop
  vertex 0.0160878 0.104192 -0.047417801
  vertex 0.025261 0.104341 -0.152219
  vertex 0.0056365598 0.123583 -0.14077701
  endloop
 endfacet

 facet normal -0.66339684 -0.74050784 0.10748398
  outer loop
  vertex 0.0056365598 0.123583 -0.14077701
  vertex 0.025261 0.104341 -0.152219
  vertex 0.019238001 0.127822 -0.027618499
  endloop
 endfacet

 facet normal 0.34259799 -0.93904495 0.028656498
  outer loop
  vertex 0.0160878 0.104192 -0.047417801
  vertex -0.0044656498 0.093683302 -0.146062
  vertex 0.025261 0.104341 -0.152219
  endloop
 endfacet

 facet normal -0.30496913 0.93978137 0.15428805
  outer loop
  vertex 0.025261 0.104341 -0.152219
  vertex -0.0044656498 0.093683302 -0.146062
  vertex -0.00674691 0.079618901 -0.064903699
  endloop
 endfacet

 facet normal 0.77615345 0.61725235 0.12878408
  outer loop
  vertex -0.00674691 0.079618901 -0.064903699
  vertex -0.0044656498 0.093683302 -0.146062
  vertex -0.0255653 0.119737 -0.14377201
  endloop
 endfacet

 facet normal -0.77713096 -0.62933892 -0.00029597196
  outer loop
  vertex -0.0255653 0.119737 -0.14377201
  vertex -0.0044656498 0.093683302 -0.146062
  vertex -0.0135263 0.104834 -0.0657828
  endloop
 endfacet

 facet normal -0.13919297 0.96848375 0.20655395
  outer loop
  vertex -0.0255653 0.119737 -0.14377201
  vertex -0.0135263 0.104834 -0.0657828
  vertex 0.0056365598 0.123583 -0.14077701
  endloop
 endfacet

 facet normal 0.12014202 -0.99249613 0.022746004
  outer loop
  vertex -0.0255653 0.119737 -0.14377201
  vertex 0.0056365598 0.123583 -0.14077701
  vertex 0.019238001 0.127822 -0.027618499
  endloop
 endfacet

 facet normal -0.097264223 0.5054521 0.85735512
  outer loop
  vertex 0.0057028001 -0.134397 -0.140058
  vertex 0.021243799 -0.116969 -0.14857
  vertex -0.019763 -0.118895 -0.152086
  endloop
 endfacet

 facet normal 0.030716805 -0.98312718 0.18032604
  outer loop
  vertex 0.021243799 -0.116969 -0.14857
  vertex -0.0113946 -0.103689 -0.070610501
  vertex -0.019763 -0.118895 -0.152086
  endloop
 endfacet

 facet normal -0.85839409 0.51293504 -0.0075626108
  outer loop
  vertex -0.0113946 -0.103689 -0.070610501
  vertex -0.0044757202 -0.093169399 -0.142415
  vertex -0.019763 -0.118895 -0.152086
  endloop
 endfacet

 facet normal 0.84387726 -0.53082317 0.07809002
  outer loop
  vertex -0.019763 -0.118895 -0.152086
  vertex -0.0044757202 -0.093169399 -0.142415
  vertex -0.0079709701 -0.085485503 -0.0524114
  endloop
 endfacet

 facet normal 0.14611404 -0.98518509 0.089783005
  outer loop
  vertex -0.0079709701 -0.085485503 -0.0524114
  vertex -0.0044757202 -0.093169399 -0.142415
  vertex 0.0173898 -0.089332901 -0.135902
  endloop
 endfacet

 facet normal -0.18735395 -0.43078688 0.8827917
  outer loop
  vertex 0.0173898 -0.089332901 -0.135902
  vertex -0.0044757202 -0.093169399 -0.142415
  vertex 0.021243799 -0.116969 -0.14857
  endloop
 endfacet

 facet normal 0.90033817 0.012883703 0.43500012
  outer loop
  vertex -0.058478002 -0.064180598 -4.2930897e-06
  vertex -0.055691101 0.066171497 -0.0096331704
  vertex -0.058405001 0.254076 -0.0095814001
  endloop
 endfacet

 facet normal 0.96545339 -0.0013931605 0.26057211
  outer loop
  vertex -0.058478002 -0.064180598 -4.2930897e-06
  vertex -0.055858199 -0.066586003 -0.0097238896
  vertex -0.055691101 0.066171497 -0.0096331704
  endloop
 endfacet

 facet normal -0.7999261 0.0072080013 0.6000551
  outer loop
  vertex -0.070870601 -0.46520099 -0.074590601
  vertex -0.108654 -0.28581199 -0.127115
  vertex -0.118004 -0.36450601 -0.138633
  endloop
 endfacet

 facet normal -0.60954219 -0.25884905 0.74930322
  outer loop
  vertex -0.105771 -0.219694 -0.119224
  vertex -0.053734299 -0.160254 -0.056359898
  vertex -0.083571397 -0.140031 -0.073645599
  endloop
 endfacet

 facet normal -0.56813002 0.17865202 0.80331302
  outer loop
  vertex -0.053957202 -0.70102102 -0.026306
  vertex -0.104818 -0.54540098 -0.0968858
  vertex -0.080827698 -0.78035098 -0.0276672
  endloop
 endfacet

 facet normal 0.53594303 0.038451206 -0.84337807
  outer loop
  vertex -0.075001702 -0.97503901 -0.0093445396
  vertex -0.081066497 -0.84862 -0.0074348799
  vertex -0.0380092 -1.00287 0.0128941
  endloop
 endfacet

 facet normal 0.88291466 0.035284385 0.46820581
  outer loop
  vertex -0.076233998 -0.89860803 -0.0127806
  vertex -0.081066497 -0.84862 -0.0074348799
  vertex -0.075001702 -0.97503901 -0.0093445396
  endloop
 endfacet

 facet normal 0.041219216 0.65652722 0.75317532
  outer loop
  vertex -0.075001702 -0.97503901 -0.0093445396
  vertex -0.0380092 -1.00287 0.0128941
  vertex -0.0407154 -0.98947603 0.0013634301
  endloop
 endfacet

 facet normal -0.19527295 0.072104886 0.97809476
  outer loop
  vertex -0.0407154 -0.98947603 0.0013634301
  vertex 0.0303127 -0.95526898 0.0130222
  vertex 0.0227405 -0.85053003 0.0037891499
  endloop
 endfacet

 facet normal 0.99195129 0.061981119 -0.11041303
  outer loop
  vertex 0.0227405 -0.85053003 0.0037891499
  vertex 0.0303127 -0.95526898 0.0130222
  vertex 0.029894801 -0.96582401 0.00334253
  endloop
 endfacet

 facet normal -0.04446378 -0.011607395 0.99894357
  outer loop
  vertex 0.023151901 -0.118011 -0.0118034
  vertex 0.0238769 -0.38343301 -0.0148552
  vertex 0.055901699 -0.0588728 -0.0096585201
  endloop
 endfacet

 facet normal -0.14912593 -0.0011180795 0.98881757
  outer loop
  vertex 0.0238769 -0.38343301 -0.0148552
  vertex 0.058001298 -0.596443 -0.0099497102
  vertex 0.055901699 -0.0588728 -0.0096585201
  endloop
 endfacet

 facet normal 0.36668083 -0.00058076269 0.93034655
  outer loop
  vertex 0.058001298 -0.596443 -0.0099497102
  vertex 0.0227405 -0.85053003 0.0037891499
  vertex 0.051814899 -0.839194 -0.0076629701
  endloop
 endfacet

 facet normal -0.96824515 -0.0039171204 0.24997203
  outer loop
  vertex 0.058382101 -0.071868099 -0.00025422801
  vertex 0.055901699 -0.0588728 -0.0096585201
  vertex 0.058001298 -0.596443 -0.0099497102
  endloop
 endfacet

 facet normal 0.20892808 0.0038876713 0.97792327
  outer loop
  vertex 0.058001298 -0.596443 -0.0099497102
  vertex 0.051814899 -0.839194 -0.0076629701
  vertex 0.053552002 -0.95091802 -0.00758994
  endloop
 endfacet

 facet normal 0.92269778 0.34976992 0.16214095
  outer loop
  vertex -0.058478002 -0.064180598 -4.2930897e-06
  vertex -0.033166599 -0.121489 -0.020417901
  vertex -0.055858199 -0.066586003 -0.0097238896
  endloop
 endfacet

 facet normal 0.061092708 0.35876104 -0.93142813
  outer loop
  vertex -0.058478002 -0.064180598 -4.2930897e-06
  vertex 0.0094962399 -0.0746997 0.00040248499
  vertex -0.033166599 -0.121489 -0.020417901
  endloop
 endfacet

 facet normal 0.94208145 -0.1939801 -0.27359515
  outer loop
  vertex -0.122208 -0.28335601 -0.130685
  vertex -0.105771 -0.219694 -0.119224
  vertex -0.093699597 -0.20388401 -0.0888687
  endloop
 endfacet

 facet normal 0.45439991 0.34755996 -0.82019681
  outer loop
  vertex -0.093699597 -0.20388401 -0.0888687
  vertex -0.055858199 -0.066586003 -0.0097238896
  vertex -0.033166599 -0.121489 -0.020417901
  endloop
 endfacet

 facet normal 0.94489115 0.17752303 0.27507505
  outer loop
  vertex -0.104818 -0.54540098 -0.0968858
  vertex -0.092075899 -0.70436698 -0.038066301
  vertex -0.080827698 -0.78035098 -0.0276672
  endloop
 endfacet

 facet normal 0.71068895 0.197612 0.67518198
  outer loop
  vertex -0.092075899 -0.70436698 -0.038066301
  vertex -0.081066497 -0.84862 -0.0074348799
  vertex -0.080827698 -0.78035098 -0.0276672
  endloop
 endfacet

 facet normal -0.27149513 -0.10773104 0.95639139
  outer loop
  vertex -0.122208 -0.28335601 -0.130685
  vertex -0.118004 -0.36450601 -0.138633
  vertex -0.108654 -0.28581199 -0.127115
  endloop
 endfacet

 facet normal 0.94256514 -0.071733207 -0.32622907
  outer loop
  vertex -0.055858199 -0.066586003 -0.0097238896
  vertex -0.093699597 -0.20388401 -0.0888687
  vertex -0.083571397 -0.140031 -0.073645599
  endloop
 endfacet

 facet normal 0.93877 -0.068399303 -0.33768699
  outer loop
  vertex -0.083571397 -0.140031 -0.073645599
  vertex -0.093699597 -0.20388401 -0.0888687
  vertex -0.105771 -0.219694 -0.119224
  endloop
 endfacet

 facet normal 0.86274284 -0.0048253685 0.50561988
  outer loop
  vertex -0.118004 -0.36450601 -0.138633
  vertex -0.122208 -0.28335601 -0.130685
  vertex -0.124309 -0.39153999 -0.128133
  endloop
 endfacet

 facet normal 0.66396105 -0.14291 -0.73398399
  outer loop
  vertex -0.124309 -0.39153999 -0.128133
  vertex -0.0607819 -0.53417403 -0.042895298
  vertex -0.092075899 -0.70436698 -0.038066301
  endloop
 endfacet

 facet normal 0.57255822 -0.12825404 -0.80977029
  outer loop
  vertex -0.092075899 -0.70436698 -0.038066301
  vertex -0.0607819 -0.53417403 -0.042895298
  vertex -0.081066497 -0.84862 -0.0074348799
  endloop
 endfacet

 facet normal -0.65681583 0.069288582 0.75086081
  outer loop
  vertex -0.070870601 -0.46520099 -0.074590601
  vertex -0.124309 -0.39153999 -0.128133
  vertex -0.104818 -0.54540098 -0.0968858
  endloop
 endfacet

 facet normal 0.94862968 0.17385195 0.2643429
  outer loop
  vertex -0.104818 -0.54540098 -0.0968858
  vertex -0.124309 -0.39153999 -0.128133
  vertex -0.092075899 -0.70436698 -0.038066301
  endloop
 endfacet

 facet normal -0.010575304 0.017869107 -0.99978435
  outer loop
  vertex 0.0034680199 -0.80868298 0.0159261
  vertex 0.0303127 -0.95526898 0.0130222
  vertex -0.0380092 -1.00287 0.0128941
  endloop
 endfacet

 facet normal -0.39924386 0.62824285 -0.66776884
  outer loop
  vertex 0.0303127 -0.95526898 0.0130222
  vertex 0.0573177 -0.95199198 -4.06283e-05
  vertex 0.029894801 -0.96582401 0.00334253
  endloop
 endfacet

 facet normal -0.39497301 0.86129802 0.319628
  outer loop
  vertex 0.053552002 -0.95091802 -0.00758994
  vertex 0.029894801 -0.96582401 0.00334253
  vertex 0.0573177 -0.95199198 -4.06283e-05
  endloop
 endfacet

 facet normal 0.12124297 -0.0014081696 -0.99262184
  outer loop
  vertex 0.056214899 -0.61831498 0.00036139099
  vertex 0.049200799 -0.41031599 -0.00079041201
  vertex 0.055801 -0.18587001 -0.00030264599
  endloop
 endfacet

 facet normal -0.89395088 0.014202698 0.44793993
  outer loop
  vertex 0.058001298 -0.596443 -0.0099497102
  vertex 0.053552002 -0.95091802 -0.00758994
  vertex 0.0573177 -0.95199198 -4.06283e-05
  endloop
 endfacet

 facet normal -0.43541694 -0.00035445194 -0.90022886
  outer loop
  vertex 0.0303127 -0.95526898 0.0130222
  vertex 0.056214899 -0.61831498 0.00036139099
  vertex 0.0573177 -0.95199198 -4.06283e-05
  endloop
 endfacet

 facet normal -0.048070613 -0.0071520219 -0.99881828
  outer loop
  vertex 0.056214899 -0.61831498 0.00036139099
  vertex -0.0030934699 -0.64782298 0.0034270401
  vertex 0.049200799 -0.41031599 -0.00079041201
  endloop
 endfacet

 facet normal 0.082781471 -0.0014510393 -0.99656659
  outer loop
  vertex 0.055801 -0.18587001 -0.00030264599
  vertex 0.058382101 -0.071868099 -0.00025422801
  vertex 0.056214899 -0.61831498 0.00036139099
  endloop
 endfacet

 facet normal -0.0134746 0.00072975393 -0.99990892
  outer loop
  vertex 0.055801 -0.18587001 -0.00030264599
  vertex 0.0094962399 -0.0746997 0.00040248499
  vertex 0.058382101 -0.071868099 -0.00025422801
  endloop
 endfacet

 facet normal -0.99966615 0.0012027803 -0.025806408
  outer loop
  vertex 0.058382101 -0.071868099 -0.00025422801
  vertex 0.058001298 -0.596443 -0.0099497102
  vertex 0.0573177 -0.95199198 -4.06283e-05
  endloop
 endfacet

 facet normal -0.30532601 0.00013817199 -0.95224786
  outer loop
  vertex 0.056214899 -0.61831498 0.00036139099
  vertex 0.058382101 -0.071868099 -0.00025422801
  vertex 0.0573177 -0.95199198 -4.06283e-05
  endloop
 endfacet

 facet normal -0.21547596 -0.020119997 -0.97630185
  outer loop
  vertex 0.0303127 -0.95526898 0.0130222
  vertex 0.0034680199 -0.80868298 0.0159261
  vertex 0.056214899 -0.61831498 0.00036139099
  endloop
 endfacet

 facet normal 0.96827275 0.067886978 0.24049795
  outer loop
  vertex -0.076233998 -0.89860803 -0.0127806
  vertex -0.080827698 -0.78035098 -0.0276672
  vertex -0.081066497 -0.84862 -0.0074348799
  endloop
 endfacet

 facet normal -0.30429211 0.40571317 0.86186028
  outer loop
  vertex -0.124309 -0.39153999 -0.128133
  vertex -0.070870601 -0.46520099 -0.074590601
  vertex -0.118004 -0.36450601 -0.138633
  endloop
 endfacet

 facet normal -0.27074292 -0.10242097 0.95718765
  outer loop
  vertex -0.108654 -0.28581199 -0.127115
  vertex -0.105771 -0.219694 -0.119224
  vertex -0.122208 -0.28335601 -0.130685
  endloop
 endfacet

 facet normal -0.38803425 0.55492234 0.73586053
  outer loop
  vertex -0.0380092 -1.00287 0.0128941
  vertex 0.0303127 -0.95526898 0.0130222
  vertex -0.0407154 -0.98947603 0.0013634301
  endloop
 endfacet

 facet normal -0.050834198 -0.018437598 -0.99853694
  outer loop
  vertex 0.058265299 0.073248602 -0.00292781
  vertex 0.058382101 -0.071868099 -0.00025422801
  vertex 0.0101998 0.092969097 -0.00084499299
  endloop
 endfacet

 facet normal -0.013004302 -0.0073847207 -0.99988812
  outer loop
  vertex 0.0101998 0.092969097 -0.00084499299
  vertex 0.058382101 -0.071868099 -0.00025422801
  vertex 0.0094962399 -0.0746997 0.00040248499
  endloop
 endfacet

 facet normal 0.0048295874 -0.0074600857 -0.99996048
  outer loop
  vertex 0.0101998 0.092969097 -0.00084499299
  vertex 0.0094962399 -0.0746997 0.00040248499
  vertex -0.058478002 -0.064180598 -4.2930897e-06
  endloop
 endfacet

 facet normal -0.0097798649 -0.0010753996 -0.9999516
  outer loop
  vertex 0.0101998 0.092969097 -0.00084499299
  vertex -0.058478002 -0.064180598 -4.2930897e-06
  vertex -0.057818402 0.066258296 -0.000151025
  endloop
 endfacet

 facet normal -0.80963594 -0.25916296 -0.52661592
  outer loop
  vertex 0.058265299 0.073248602 -0.00292781
  vertex 0.071184702 0.139598 -0.055443101
  vertex 0.083117001 0.138354 -0.073176198
  endloop
 endfacet

 facet normal -0.94276899 0.332479 -0.025383599
  outer loop
  vertex 0.058265299 0.073248602 -0.00292781
  vertex 0.083117001 0.138354 -0.073176198
  vertex 0.055873498 0.065948598 -0.0097129103
  endloop
 endfacet

 facet normal -0.94309795 -6.785e-05 0.33251497
  outer loop
  vertex 0.055873498 0.065948598 -0.0097129103
  vertex 0.055901699 -0.0588728 -0.0096585201
  vertex 0.058265299 0.073248602 -0.00292781
  endloop
 endfacet

 facet normal -0.96554047 0.0040164879 0.26022184
  outer loop
  vertex 0.055901699 -0.0588728 -0.0096585201
  vertex 0.058382101 -0.071868099 -0.00025422801
  vertex 0.058265299 0.073248602 -0.00292781
  endloop
 endfacet

 facet normal 0.3947379 0.25038493 0.88401884
  outer loop
  vertex 0.083117001 0.138354 -0.073176198
  vertex 0.126334 0.29399699 -0.136557
  vertex 0.089897297 0.239197 -0.104766
  endloop
 endfacet

 facet normal -0.90985507 -0.203448 0.36162502
  outer loop
  vertex 0.088048302 0.74360299 -0.0275713
  vertex 0.082046099 0.76524001 -0.0305
  vertex 0.104825 0.54534203 -0.096900299
  endloop
 endfacet

 facet normal 0.69045389 -0.14261897 0.70917785
  outer loop
  vertex 0.082046099 0.76524001 -0.0305
  vertex 0.064696297 0.51325202 -0.064284399
  vertex 0.104825 0.54534203 -0.096900299
  endloop
 endfacet

 facet normal -0.55775607 -0.080201611 -0.82612103
  outer loop
  vertex 0.075001702 0.97503901 -0.0093445396
  vertex 0.081384398 0.885023 -0.00491485
  vertex 0.037913099 1.0030299 0.0129784
  endloop
 endfacet

 facet normal -0.86378807 -0.036518604 0.50253004
  outer loop
  vertex 0.076233499 0.89877898 -0.0127689
  vertex 0.081384398 0.885023 -0.00491485
  vertex 0.075001702 0.97503901 -0.0093445396
  endloop
 endfacet

 facet normal -0.043563403 -0.65757102 0.75213206
  outer loop
  vertex 0.075001702 0.97503901 -0.0093445396
  vertex 0.037913099 1.0030299 0.0129784
  vertex 0.040877901 0.98949498 0.00131778
  endloop
 endfacet

 facet normal 0.19034508 -0.070056632 0.97921443
  outer loop
  vertex 0.040877901 0.98949498 0.00131778
  vertex -0.029684501 0.95604497 0.0126409
  vertex -0.022703899 0.85297501 0.0039099501
  endloop
 endfacet

 facet normal -0.99696475 -0.063733585 -0.044712387
  outer loop
  vertex -0.022703899 0.85297501 0.0039099501
  vertex -0.029684501 0.95604497 0.0126409
  vertex -0.029892599 0.96582401 0.0033436799
  endloop
 endfacet

 facet normal 0.18570395 0.0024113995 0.98260278
  outer loop
  vertex -0.055691101 0.066171497 -0.0096331704
  vertex -0.0049193599 0.21935999 -0.019604599
  vertex -0.058405001 0.254076 -0.0095814001
  endloop
 endfacet

 facet normal -0.36901996 -0.00098475185 0.92942095
  outer loop
  vertex -0.051814899 0.839194 -0.0076629701
  vertex -0.056363501 0.55811101 -0.0097668003
  vertex -0.022703899 0.85297501 0.0039099501
  endloop
 endfacet

 facet normal -0.20575202 -0.0039949203 0.97859609
  outer loop
  vertex -0.056363501 0.55811101 -0.0097668003
  vertex -0.051814899 0.839194 -0.0076629701
  vertex -0.0533484 0.95098299 -0.0075290399
  endloop
 endfacet

 facet normal -0.26599208 -0.56588715 -0.78039724
  outer loop
  vertex 0.0101998 0.092969097 -0.00084499299
  vertex 0.071184702 0.139598 -0.055443101
  vertex 0.058265299 0.073248602 -0.00292781
  endloop
 endfacet

 facet normal -0.7405141 -0.085676715 -0.66655713
  outer loop
  vertex 0.126334 0.29399699 -0.136557
  vertex 0.071184702 0.139598 -0.055443101
  vertex 0.052103002 0.24569 -0.047881
  endloop
 endfacet

 facet normal -0.82956243 0.0029477112 -0.55840623
  outer loop
  vertex 0.083117001 0.138354 -0.073176198
  vertex 0.071184702 0.139598 -0.055443101
  vertex 0.126334 0.29399699 -0.136557
  endloop
 endfacet

 facet normal -0.68935394 0.13818099 -0.71112394
  outer loop
  vertex 0.088048302 0.74360299 -0.0275713
  vertex 0.118766 0.44238901 -0.115879
  vertex 0.062922798 0.518668 -0.0469229
  endloop
 endfacet

 facet normal 0.65396672 -0.050591979 0.7548297
  outer loop
  vertex 0.064696297 0.51325202 -0.064284399
  vertex 0.118766 0.44238901 -0.115879
  vertex 0.104825 0.54534203 -0.096900299
  endloop
 endfacet

 facet normal -0.94021171 -0.18054993 0.28879687
  outer loop
  vertex 0.104825 0.54534203 -0.096900299
  vertex 0.118766 0.44238901 -0.115879
  vertex 0.088048302 0.74360299 -0.0275713
  endloop
 endfacet

 facet normal 0.018024294 -0.018749695 -0.99966168
  outer loop
  vertex -0.0068424498 0.80112797 0.0159584
  vertex -0.029684501 0.95604497 0.0126409
  vertex 0.037913099 1.0030299 0.0129784
  endloop
 endfacet

 facet normal 0.39892504 -0.62736803 -0.66878104
  outer loop
  vertex -0.029684501 0.95604497 0.0126409
  vertex -0.0573177 0.95199198 -4.06283e-05
  vertex -0.029892599 0.96582401 0.0033436799
  endloop
 endfacet

 facet normal 0.39367092 -0.86002481 0.32462391
  outer loop
  vertex -0.0533484 0.95098299 -0.0075290399
  vertex -0.029892599 0.96582401 0.0033436799
  vertex -0.0573177 0.95199198 -4.06283e-05
  endloop
 endfacet

 facet normal -0.08073546 0.00016986893 -0.99673557
  outer loop
  vertex -0.0573177 0.95199198 -4.06283e-05
  vertex -0.049200799 0.41031599 -0.00079041201
  vertex -0.057818402 0.066258296 -0.000151025
  endloop
 endfacet

 facet normal 0.0129212 -0.058836795 -0.99818397
  outer loop
  vertex -0.057818402 0.066258296 -0.000151025
  vertex -0.0103591 0.171839 -0.0057600099
  vertex 0.0101998 0.092969097 -0.00084499299
  endloop
 endfacet

 facet normal 0.65876585 0.010912698 -0.75226891
  outer loop
  vertex -0.0573177 0.95199198 -4.06283e-05
  vertex -0.050185099 0.58952898 0.00094739901
  vertex -0.049200799 0.41031599 -0.00079041201
  endloop
 endfacet

 facet normal 0.99732566 -0.00055464875 -0.073083669
  outer loop
  vertex -0.057818402 0.066258296 -0.000151025
  vertex -0.058405001 0.254076 -0.0095814001
  vertex -0.0573177 0.95199198 -4.06283e-05
  endloop
 endfacet

 facet normal 0.94053823 -0.0061081708 0.33963305
  outer loop
  vertex -0.058405001 0.254076 -0.0095814001
  vertex -0.056363501 0.55811101 -0.0097668003
  vertex -0.0573177 0.95199198 -4.06283e-05
  endloop
 endfacet

 facet normal 0.41639772 0.0057156966 -0.90916455
  outer loop
  vertex -0.029684501 0.95604497 0.0126409
  vertex -0.050185099 0.58952898 0.00094739901
  vertex -0.0573177 0.95199198 -4.06283e-05
  endloop
 endfacet

 facet normal -0.90081179 -0.095453478 0.42358789
  outer loop
  vertex 0.076233499 0.89877898 -0.0127689
  vertex 0.082046099 0.76524001 -0.0305
  vertex 0.081384398 0.885023 -0.00491485
  endloop
 endfacet

 facet normal 0.4339259 -0.28996992 0.85300982
  outer loop
  vertex 0.118766 0.44238901 -0.115879
  vertex 0.064696297 0.51325202 -0.064284399
  vertex 0.118975 0.372814 -0.139636
  endloop
 endfacet

 facet normal -0.96969825 -0.081546612 0.23029406
  outer loop
  vertex 0.118766 0.44238901 -0.115879
  vertex 0.118975 0.372814 -0.139636
  vertex 0.126334 0.29399699 -0.136557
  endloop
 endfacet

 facet normal 0.57870805 0.085713796 0.81101799
  outer loop
  vertex 0.118975 0.372814 -0.139636
  vertex 0.089897297 0.239197 -0.104766
  vertex 0.126334 0.29399699 -0.136557
  endloop
 endfacet

 facet normal -0.78168106 -0.13440402 0.60902405
  outer loop
  vertex 0.082046099 0.76524001 -0.0305
  vertex 0.088048302 0.74360299 -0.0275713
  vertex 0.081384398 0.885023 -0.00491485
  endloop
 endfacet

 facet normal 0.38138607 -0.55402714 0.73999912
  outer loop
  vertex 0.037913099 1.0030299 0.0129784
  vertex -0.029684501 0.95604497 0.0126409
  vertex 0.040877901 0.98949498 0.00131778
  endloop
 endfacet

 facet normal 0.88298339 -0.0094497036 0.46930918
  outer loop
  vertex -0.0573177 0.95199198 -4.06283e-05
  vertex -0.056363501 0.55811101 -0.0097668003
  vertex -0.0533484 0.95098299 -0.0075290399
  endloop
 endfacet

 facet normal 0.98638314 -0.0051729507 -0.16438203
  outer loop
  vertex -0.058405001 0.254076 -0.0095814001
  vertex -0.057818402 0.066258296 -0.000151025
  vertex -0.058478002 -0.064180598 -4.2930897e-06
  endloop
 endfacet

 facet normal -0.87616384 -0.017955795 0.48167887
  outer loop
  vertex -0.0079709701 -0.085485503 -0.0524114
  vertex 0.0141388 -0.088261597 -0.0122976
  vertex -0.00415282 -0.0259271 -0.043246001
  endloop
 endfacet

 facet normal -0.84891754 0.10520494 0.51794869
  outer loop
  vertex 0.0140391 0.020564299 -0.0104583
  vertex 0.0049151201 0.0846885 -0.0384374
  vertex -0.0082591502 0.0259078 -0.048090499
  endloop
 endfacet

 facet normal -0.91548246 0.1434489 0.37591776
  outer loop
  vertex -0.0082591502 0.0259078 -0.048090499
  vertex 0.0049151201 0.0846885 -0.0384374
  vertex -0.00674691 0.079618901 -0.064903699
  endloop
 endfacet

 facet normal 0.42204696 0.032061897 0.90600693
  outer loop
  vertex -0.020665299 0.127101 -0.0090047102
  vertex 0.019238001 0.127822 -0.027618499
  vertex -0.0049193599 0.21935999 -0.019604599
  endloop
 endfacet

 facet normal 0.91476655 -0.11809594 0.38633582
  outer loop
  vertex -0.0079709701 -0.085485503 -0.0524114
  vertex -0.00415282 -0.0259271 -0.043246001
  vertex -0.0251323 -0.102274 -0.0169085
  endloop
 endfacet

 facet normal 0.83304119 -0.038534809 0.55186713
  outer loop
  vertex -0.00415282 -0.0259271 -0.043246001
  vertex -0.025219001 -0.00095965998 -0.0097032897
  vertex -0.0251323 -0.102274 -0.0169085
  endloop
 endfacet

 facet normal 0.99939352 -0.01900419 0.029178185
  outer loop
  vertex -0.00674691 0.079618901 -0.064903699
  vertex -0.00847378 0.0753932 -0.00850851
  vertex -0.0082591502 0.0259078 -0.048090499
  endloop
 endfacet

 facet normal -0.85563207 0.0058792005 0.51755106
  outer loop
  vertex -0.00415282 -0.0259271 -0.043246001
  vertex 0.0141388 -0.088261597 -0.0122976
  vertex 0.0159621 -0.027847201 -0.0099695204
  endloop
 endfacet

 facet normal -0.94078082 0.013936098 0.33872893
  outer loop
  vertex 0.0049151201 0.0846885 -0.0384374
  vertex 0.0140391 0.020564299 -0.0104583
  vertex 0.0153005 0.076162703 -0.0092424303
  endloop
 endfacet

 facet normal -0.63974476 -0.060449477 -0.76620668
  outer loop
  vertex 0.071184702 0.139598 -0.055443101
  vertex 0.0101998 0.092969097 -0.00084499299
  vertex 0.052103002 0.24569 -0.047881
  endloop
 endfacet

 facet normal -0.41167599 -0.16318598 -0.89660096
  outer loop
  vertex 0.052103002 0.24569 -0.047881
  vertex 0.0101998 0.092969097 -0.00084499299
  vertex -0.0103591 0.171839 -0.0057600099
  endloop
 endfacet

 facet normal -0.044225398 -0.033164296 -0.99847096
  outer loop
  vertex -0.0103591 0.171839 -0.0057600099
  vertex -0.057818402 0.066258296 -0.000151025
  vertex 0.0103472 0.41319999 -0.014694
  endloop
 endfacet

 facet normal -0.22754708 0.0038897414 -0.97375929
  outer loop
  vertex 0.0103472 0.41319999 -0.014694
  vertex -0.057818402 0.066258296 -0.000151025
  vertex -0.049200799 0.41031599 -0.00079041201
  endloop
 endfacet

 facet normal 0.2535581 0.016674805 -0.96717644
  outer loop
  vertex -0.0068424498 0.80112797 0.0159584
  vertex -0.050185099 0.58952898 0.00094739901
  vertex -0.029684501 0.95604497 0.0126409
  endloop
 endfacet

 facet normal -0.29460296 0.07274539 -0.95284694
  outer loop
  vertex 0.0289483 0.67239702 -0.0049355002
  vertex -0.0068424498 0.80112797 0.0159584
  vertex 0.081384398 0.885023 -0.00491485
  endloop
 endfacet

 facet normal -0.27112004 0.045909103 -0.96145004
  outer loop
  vertex 0.037913099 1.0030299 0.0129784
  vertex 0.081384398 0.885023 -0.00491485
  vertex -0.0068424498 0.80112797 0.0159584
  endloop
 endfacet

 facet normal -0.47529784 0.11729896 -0.87197071
  outer loop
  vertex 0.081384398 0.885023 -0.00491485
  vertex 0.088048302 0.74360299 -0.0275713
  vertex 0.0289483 0.67239702 -0.0049355002
  endloop
 endfacet

 facet normal -0.48608407 0.12866102 -0.86438912
  outer loop
  vertex 0.088048302 0.74360299 -0.0275713
  vertex 0.062922798 0.518668 -0.0469229
  vertex 0.0289483 0.67239702 -0.0049355002
  endloop
 endfacet

 facet normal -0.74561393 0.054523394 -0.66414392
  outer loop
  vertex 0.062922798 0.518668 -0.0469229
  vertex 0.118766 0.44238901 -0.115879
  vertex 0.126334 0.29399699 -0.136557
  endloop
 endfacet

 facet normal -0.77514201 0.032937996 -0.63092792
  outer loop
  vertex 0.062922798 0.518668 -0.0469229
  vertex 0.126334 0.29399699 -0.136557
  vertex 0.052103002 0.24569 -0.047881
  endloop
 endfacet

 facet normal -0.5743258 0.018977996 -0.81840676
  outer loop
  vertex -0.0103591 0.171839 -0.0057600099
  vertex 0.0103472 0.41319999 -0.014694
  vertex 0.052103002 0.24569 -0.047881
  endloop
 endfacet

 facet normal -0.55850011 0.025046805 -0.82912624
  outer loop
  vertex 0.052103002 0.24569 -0.047881
  vertex 0.0103472 0.41319999 -0.014694
  vertex 0.062922798 0.518668 -0.0469229
  endloop
 endfacet

 facet normal -0.22960392 0.056588277 -0.97163767
  outer loop
  vertex 0.0103472 0.41319999 -0.014694
  vertex -0.049200799 0.41031599 -0.00079041201
  vertex -0.0232237 0.568443 0.0022803801
  endloop
 endfacet

 facet normal -0.24119896 0.053790592 -0.96898383
  outer loop
  vertex 0.0103472 0.41319999 -0.014694
  vertex -0.0232237 0.568443 0.0022803801
  vertex 0.0289483 0.67239702 -0.0049355002
  endloop
 endfacet

 facet normal 0.057173707 0.009994532 -0.9983142
  outer loop
  vertex -0.049200799 0.41031599 -0.00079041201
  vertex -0.050185099 0.58952898 0.00094739901
  vertex -0.0232237 0.568443 0.0022803801
  endloop
 endfacet

 facet normal -0.62501985 0.074110389 -0.7770828
  outer loop
  vertex 0.062922798 0.518668 -0.0469229
  vertex 0.0103472 0.41319999 -0.014694
  vertex 0.0289483 0.67239702 -0.0049355002
  endloop
 endfacet

 facet normal 0.08994513 0.052132424 -0.99458134
  outer loop
  vertex -0.0232237 0.568443 0.0022803801
  vertex -0.050185099 0.58952898 0.00094739901
  vertex -0.0068424498 0.80112797 0.0159584
  endloop
 endfacet

 facet normal -0.28398192 0.076177388 -0.95579875
  outer loop
  vertex 0.0289483 0.67239702 -0.0049355002
  vertex -0.0232237 0.568443 0.0022803801
  vertex -0.0068424498 0.80112797 0.0159584
  endloop
 endfacet

 facet normal 0.38484704 0.058962706 -0.92109519
  outer loop
  vertex 0.0057856501 -0.220441 -0.0104773
  vertex -0.033166599 -0.121489 -0.020417901
  vertex 0.0094962399 -0.0746997 0.00040248499
  endloop
 endfacet

 facet normal 0.15236603 0.069716707 -0.98586214
  outer loop
  vertex 0.0094962399 -0.0746997 0.00040248499
  vertex 0.055801 -0.18587001 -0.00030264599
  vertex 0.0057856501 -0.220441 -0.0104773
  endloop
 endfacet

 facet normal 0.20187306 -0.0038079612 -0.97940427
  outer loop
  vertex 0.0057856501 -0.220441 -0.0104773
  vertex 0.055801 -0.18587001 -0.00030264599
  vertex 0.049200799 -0.41031599 -0.00079041201
  endloop
 endfacet

 facet normal -0.012731897 -0.077977888 -0.9968738
  outer loop
  vertex -0.0030934699 -0.64782298 0.0034270401
  vertex 0.056214899 -0.61831498 0.00036139099
  vertex 0.0034680199 -0.80868298 0.0159261
  endloop
 endfacet

 facet normal 0.29303399 -0.062180396 -0.95407796
  outer loop
  vertex -0.0030934699 -0.64782298 0.0034270401
  vertex 0.0034680199 -0.80868298 0.0159261
  vertex -0.081066497 -0.84862 -0.0074348799
  endloop
 endfacet

 facet normal 0.28630307 -0.046208609 -0.95702416
  outer loop
  vertex -0.0380092 -1.00287 0.0128941
  vertex -0.081066497 -0.84862 -0.0074348799
  vertex 0.0034680199 -0.80868298 0.0159261
  endloop
 endfacet

 facet normal 0.54325604 -0.028565302 -0.83908105
  outer loop
  vertex -0.0059142499 -0.48652101 -0.008994
  vertex -0.0607819 -0.53417403 -0.042895298
  vertex 0.0057856501 -0.220441 -0.0104773
  endloop
 endfacet

 facet normal 0.77680802 -0.029926799 -0.62902606
  outer loop
  vertex -0.0607819 -0.53417403 -0.042895298
  vertex -0.124309 -0.39153999 -0.128133
  vertex -0.122208 -0.28335601 -0.130685
  endloop
 endfacet

 facet normal 0.76454383 -0.037979793 -0.64345187
  outer loop
  vertex -0.0607819 -0.53417403 -0.042895298
  vertex -0.122208 -0.28335601 -0.130685
  vertex -0.051467702 -0.26177001 -0.047906902
  endloop
 endfacet

 facet normal 0.74761593 0.078800596 -0.65943992
  outer loop
  vertex -0.051467702 -0.26177001 -0.047906902
  vertex -0.122208 -0.28335601 -0.130685
  vertex -0.093699597 -0.20388401 -0.0888687
  endloop
 endfacet

 facet normal 0.48952398 0.10574799 -0.86555398
  outer loop
  vertex -0.033166599 -0.121489 -0.020417901
  vertex 0.0057856501 -0.220441 -0.0104773
  vertex -0.051467702 -0.26177001 -0.047906902
  endloop
 endfacet

 facet normal 0.72375238 0.040567517 -0.68886632
  outer loop
  vertex -0.093699597 -0.20388401 -0.0888687
  vertex -0.033166599 -0.121489 -0.020417901
  vertex -0.051467702 -0.26177001 -0.047906902
  endloop
 endfacet

 facet normal 0.564183 -0.034467801 -0.82493007
  outer loop
  vertex -0.051467702 -0.26177001 -0.047906902
  vertex 0.0057856501 -0.220441 -0.0104773
  vertex -0.0607819 -0.53417403 -0.042895298
  endloop
 endfacet

 facet normal 0.16440497 -0.012727397 -0.98631078
  outer loop
  vertex 0.0057856501 -0.220441 -0.0104773
  vertex 0.049200799 -0.41031599 -0.00079041201
  vertex -0.0059142499 -0.48652101 -0.008994
  endloop
 endfacet

 facet normal 0.24128704 -0.070313714 -0.9679032
  outer loop
  vertex -0.0059142499 -0.48652101 -0.008994
  vertex 0.049200799 -0.41031599 -0.00079041201
  vertex -0.0030934699 -0.64782298 0.0034270401
  endloop
 endfacet

 facet normal 0.55837768 -0.053982072 -0.82782865
  outer loop
  vertex -0.0607819 -0.53417403 -0.042895298
  vertex -0.0059142499 -0.48652101 -0.008994
  vertex -0.0030934699 -0.64782298 0.0034270401
  endloop
 endfacet

 facet normal 0.45426506 -0.12871401 -0.88151908
  outer loop
  vertex -0.0607819 -0.53417403 -0.042895298
  vertex -0.0030934699 -0.64782298 0.0034270401
  vertex -0.081066497 -0.84862 -0.0074348799
  endloop
 endfacet

 facet normal -0.099450663 -0.98704863 0.12587495
  outer loop
  vertex -0.0044656498 0.093683302 -0.146062
  vertex 0.0160878 0.104192 -0.047417801
  vertex -0.0135263 0.104834 -0.0657828
  endloop
 endfacet

 facet normal -0.35194802 -0.76396108 0.54082906
  outer loop
  vertex -0.0135263 0.104834 -0.0657828
  vertex 0.0160878 0.104192 -0.047417801
  vertex -0.0080735199 0.122668 -0.037042499
  endloop
 endfacet

endsolidAssimpScene
